<svg width="25" height="24" viewBox="0 0 25 24" fill="none" xmlns="http://www.w3.org/2000/svg">
<circle cx="12" cy="12" r="11.5" transform="matrix(-1 0 0 1 24.5 0)" fill="white" stroke="#F0F0F0"/>
<g clip-path="url(#clip0_152_42479)">
<path d="M20.5 12C20.5 7.58175 16.9183 4 12.5 4C8.08175 4 4.5 7.58169 4.5 12C4.5 15.993 7.4255 19.3027 11.25 19.9028V14.3125H9.21875V12H11.25V10.2375C11.25 8.2325 12.4444 7.125 14.2717 7.125C15.147 7.125 16.0625 7.28125 16.0625 7.28125V9.25H15.0538C14.0599 9.25 13.75 9.86669 13.75 10.4994V12H15.9688L15.6141 14.3125H13.75V19.9028C17.5745 19.3027 20.5 15.9931 20.5 12Z" fill="#1877F2"/>
<path d="M15.6141 14.3125L15.9688 12H13.75V10.4994C13.75 9.86662 14.0599 9.25 15.0538 9.25H16.0625V7.28125C16.0625 7.28125 15.147 7.125 14.2717 7.125C12.4444 7.125 11.25 8.2325 11.25 10.2375V12H9.21875V14.3125H11.25V19.9028C11.6635 19.9676 12.0814 20.0001 12.5 20C12.9186 20.0001 13.3365 19.9676 13.75 19.9028V14.3125H15.6141Z" fill="white"/>
</g>
<defs>
<clipPath id="clip0_152_42479">
<rect width="16" height="16" fill="white" transform="translate(4.5 4)"/>
</clipPath>
</defs>
</svg>
