<svg width="25" height="24" viewBox="0 0 25 24" fill="none" xmlns="http://www.w3.org/2000/svg">
<circle cx="12" cy="12" r="11.5" transform="matrix(-1 0 0 1 24.5 0)" fill="white" stroke="#F0F0F0"/>
<g clip-path="url(#clip0_152_42485)">
<path d="M16.2188 5H8.78125C6.96907 5 5.5 6.46907 5.5 8.28125V15.7188C5.5 17.5309 6.96907 19 8.78125 19H16.2188C18.0309 19 19.5 17.5309 19.5 15.7188V8.28125C19.5 6.46907 18.0309 5 16.2188 5Z" fill="url(#paint0_radial_152_42485)"/>
<path d="M16.2188 5H8.78125C6.96907 5 5.5 6.46907 5.5 8.28125V15.7188C5.5 17.5309 6.96907 19 8.78125 19H16.2188C18.0309 19 19.5 17.5309 19.5 15.7188V8.28125C19.5 6.46907 18.0309 5 16.2188 5Z" fill="url(#paint1_radial_152_42485)"/>
<path d="M12.5005 6.53125C11.0153 6.53125 10.8289 6.53776 10.2456 6.56428C9.66336 6.59097 9.26595 6.68312 8.91824 6.81836C8.55851 6.95803 8.25341 7.1449 7.94945 7.44896C7.64523 7.75297 7.45836 8.05807 7.31825 8.41764C7.18263 8.76545 7.09037 9.16303 7.06417 9.74496C7.03809 10.3283 7.03125 10.5148 7.03125 12.0001C7.03125 13.4853 7.03781 13.6711 7.06428 14.2544C7.09108 14.8366 7.18323 15.2341 7.31836 15.5818C7.45814 15.9415 7.64501 16.2466 7.94907 16.5505C8.25297 16.8548 8.55807 17.0421 8.91753 17.1818C9.26551 17.317 9.66298 17.4091 10.2451 17.4358C10.8284 17.4624 11.0147 17.4689 12.4998 17.4689C13.9852 17.4689 14.171 17.4624 14.7543 17.4358C15.3365 17.4091 15.7344 17.317 16.0824 17.1818C16.4419 17.0421 16.7466 16.8548 17.0504 16.5505C17.3547 16.2466 17.5415 15.9415 17.6816 15.5819C17.8161 15.2341 17.9084 14.8365 17.9357 14.2545C17.9619 13.6712 17.9688 13.4853 17.9688 12.0001C17.9688 10.5148 17.9619 10.3284 17.9357 9.74507C17.9084 9.16287 17.8161 8.76551 17.6816 8.4178C17.5415 8.05807 17.3547 7.75297 17.0504 7.44896C16.7463 7.14479 16.442 6.95792 16.082 6.81841C15.7334 6.68312 15.3358 6.59091 14.7536 6.56428C14.1702 6.53776 13.9845 6.53125 12.4988 6.53125H12.5005ZM12.0099 7.51677C12.1555 7.51655 12.318 7.51677 12.5005 7.51677C13.9607 7.51677 14.1337 7.52202 14.7104 7.54822C15.2436 7.57261 15.533 7.6617 15.7257 7.73656C15.981 7.83566 16.1629 7.95416 16.3542 8.14562C16.5456 8.33703 16.6641 8.5193 16.7634 8.77453C16.8383 8.96703 16.9275 9.25644 16.9518 9.78964C16.978 10.3662 16.9837 10.5393 16.9837 11.9988C16.9837 13.4583 16.978 13.6315 16.9518 14.208C16.9274 14.7412 16.8383 15.0306 16.7634 15.2231C16.6643 15.4783 16.5456 15.6601 16.3542 15.8514C16.1628 16.0428 15.9811 16.1612 15.7257 16.2604C15.5332 16.3356 15.2436 16.4244 14.7104 16.4488C14.1338 16.475 13.9607 16.4807 12.5005 16.4807C11.0402 16.4807 10.8671 16.475 10.2907 16.4488C9.75748 16.4242 9.46807 16.3351 9.27513 16.2603C9.01996 16.1611 8.83763 16.0427 8.64623 15.8513C8.45482 15.6599 8.33637 15.478 8.237 15.2227C8.16213 15.0301 8.07294 14.7407 8.04866 14.2075C8.02246 13.631 8.01721 13.4579 8.01721 11.9974C8.01721 10.5371 8.02246 10.3648 8.04866 9.78827C8.07305 9.25507 8.16213 8.96566 8.237 8.77289C8.33615 8.51766 8.45482 8.33539 8.64628 8.14398C8.83769 7.95258 9.01996 7.83407 9.27519 7.73476C9.46796 7.65956 9.75748 7.5707 10.2907 7.5462C10.7952 7.52339 10.9907 7.51655 12.0099 7.51541V7.51677ZM15.4197 8.4248C15.0574 8.4248 14.7635 8.71848 14.7635 9.08084C14.7635 9.44314 15.0574 9.73709 15.4197 9.73709C15.782 9.73709 16.076 9.44314 16.076 9.08084C16.076 8.71853 15.782 8.42459 15.4197 8.42459V8.4248ZM12.5005 9.19158C10.9496 9.19158 9.69207 10.4491 9.69207 12.0001C9.69207 13.551 10.9496 14.8079 12.5005 14.8079C14.0515 14.8079 15.3085 13.551 15.3085 12.0001C15.3085 10.4491 14.0514 9.19158 12.5004 9.19158H12.5005ZM12.5005 10.1771C13.5072 10.1771 14.3234 10.9932 14.3234 12.0001C14.3234 13.0068 13.5072 13.823 12.5005 13.823C11.4937 13.823 10.6776 13.0068 10.6776 12.0001C10.6776 10.9932 11.4937 10.1771 12.5005 10.1771Z" fill="white"/>
</g>
<defs>
<radialGradient id="paint0_radial_152_42485" cx="0" cy="0" r="1" gradientUnits="userSpaceOnUse" gradientTransform="translate(9.21875 20.0783) rotate(-90) scale(13.875 12.9049)">
<stop stop-color="#FFDD55"/>
<stop offset="0.1" stop-color="#FFDD55"/>
<stop offset="0.5" stop-color="#FF543E"/>
<stop offset="1" stop-color="#C837AB"/>
</radialGradient>
<radialGradient id="paint1_radial_152_42485" cx="0" cy="0" r="1" gradientUnits="userSpaceOnUse" gradientTransform="translate(3.15495 6.00849) rotate(78.681) scale(6.20222 25.5657)">
<stop stop-color="#3771C8"/>
<stop offset="0.128" stop-color="#3771C8"/>
<stop offset="1" stop-color="#6600FF" stop-opacity="0"/>
</radialGradient>
<clipPath id="clip0_152_42485">
<rect width="14" height="14" fill="white" transform="translate(5.5 5)"/>
</clipPath>
</defs>
</svg>
