<svg width="25" height="24" viewBox="0 0 25 24" fill="none" xmlns="http://www.w3.org/2000/svg">
<circle cx="12" cy="12" r="11.5" transform="matrix(-1 0 0 1 24.5 0)" fill="white" stroke="#D0D5DD"/>
<g clip-path="url(#clip0_152_42522)">
<path fill-rule="evenodd" clip-rule="evenodd" d="M11.3032 12.8004L13.0012 13.9614L14.638 12.8322L18.307 16.452C18.2104 16.4832 18.1072 16.5 17.9998 16.5H8.0002C7.8682 16.5 7.7422 16.4742 7.6264 16.428L11.3032 12.8004ZM19 9.8256V15.4998C19 15.648 18.9676 15.7884 18.91 15.915L15.3136 12.3666L19 9.8256ZM7 9.8574L10.6252 12.3366L7.0636 15.8514C7.02142 15.739 6.99987 15.6199 7 15.4998V9.8574ZM17.9998 7.5C18.5518 7.5 19 7.9476 19 8.5002V8.8518L12.9988 12.9888L7 8.886V8.5002C7 7.9482 7.4476 7.5 8.0002 7.5H17.9998Z" fill="#000094"/>
</g>
<defs>
<clipPath id="clip0_152_42522">
<rect width="12" height="12" fill="white" transform="translate(7 6)"/>
</clipPath>
</defs>
</svg>
