<svg width="25" height="24" viewBox="0 0 25 24" fill="none" xmlns="http://www.w3.org/2000/svg">
<circle cx="12" cy="12" r="11.5" transform="matrix(-1 0 0 1 24.5 0)" fill="white" stroke="#D0D5DD"/>
<path fill-rule="evenodd" clip-rule="evenodd" d="M12.9999 5C9.05662 5 6 7.8878 6 11.7899C6 13.8308 6.83587 15.5945 8.19879 16.812C8.31271 16.9149 8.38271 17.0577 8.38683 17.2114L8.42526 18.4563C8.43761 18.8529 8.848 19.1123 9.21172 18.9518L10.6007 18.3382C10.7188 18.2861 10.8505 18.2765 10.974 18.3108C11.6123 18.4865 12.2917 18.5798 12.9999 18.5798C16.9432 18.5798 19.9998 15.692 19.9998 11.7899C19.9998 7.8878 16.9432 5 12.9999 5Z" fill="url(#paint0_radial_152_42514)"/>
<path fill-rule="evenodd" clip-rule="evenodd" d="M8.79578 13.7741L10.8518 10.5116C11.1785 9.99282 11.8799 9.86381 12.3698 10.2316L14.0059 11.4587C14.1555 11.5712 14.3628 11.5712 14.5124 11.4573L16.7208 9.78145C17.0159 9.55773 17.4002 9.91047 17.2025 10.2234L15.1465 13.4845C14.8198 14.0034 14.1184 14.1324 13.6285 13.7645L11.9924 12.5375C11.8428 12.4249 11.6355 12.4249 11.4859 12.5389L9.27891 14.2161C8.98382 14.4398 8.59951 14.0871 8.79578 13.7741Z" fill="white"/>
<defs>
<radialGradient id="paint0_radial_152_42514" cx="0" cy="0" r="1" gradientUnits="userSpaceOnUse" gradientTransform="translate(8.69072 18.9236) scale(15.2515 15.2515)">
<stop stop-color="#5697FB"/>
<stop offset="0.6098" stop-color="#8936F9"/>
<stop offset="0.9348" stop-color="#DD537E"/>
<stop offset="1" stop-color="#E06F62"/>
</radialGradient>
</defs>
</svg>
