<svg width="25" height="24" viewBox="0 0 25 24" fill="none" xmlns="http://www.w3.org/2000/svg">
<circle cx="12" cy="12" r="11.5" transform="matrix(-1 0 0 1 24.5 0)" fill="white" stroke="#D0D5DD"/>
<g clip-path="url(#clip0_152_42474)">
<path d="M5.5 12.0001C5.5 14.8665 7.22364 17.329 9.6901 18.4116C9.67041 17.9228 9.6866 17.336 9.81194 16.8042C9.94653 16.2359 10.7126 12.9898 10.7126 12.9898C10.7126 12.9898 10.489 12.5429 10.489 11.8823C10.489 10.8449 11.0903 10.0702 11.839 10.0702C12.4758 10.0702 12.7834 10.5484 12.7834 11.1211C12.7834 11.7612 12.3751 12.7186 12.1652 13.6054C11.9898 14.3479 12.5375 14.9536 13.2701 14.9536C14.5963 14.9536 15.4896 13.2501 15.4896 11.2318C15.4896 9.6976 14.4563 8.54927 12.5768 8.54927C10.4534 8.54927 9.13059 10.1328 9.13059 11.9016C9.13059 12.5115 9.31041 12.9416 9.59205 13.2746C9.72155 13.4276 9.73954 13.4891 9.69267 13.6647C9.65909 13.7935 9.58198 14.1036 9.55005 14.2265C9.50345 14.4038 9.35979 14.4672 9.19955 14.4017C8.22152 14.0024 7.76603 12.9314 7.76603 11.7274C7.76603 9.73889 9.44308 7.35452 12.769 7.35452C15.4415 7.35452 17.2006 9.28848 17.2006 11.3645C17.2006 14.1105 15.6739 16.162 13.4235 16.162C12.6678 16.162 11.9569 15.7535 11.7134 15.2895C11.7134 15.2895 11.307 16.9023 11.2209 17.2137C11.0725 17.7535 10.782 18.2929 10.5164 18.7133C11.1605 18.9038 11.8286 19.0004 12.5003 19.0004C16.3658 19.0004 19.5001 15.8663 19.5001 12.0001C19.5001 8.13409 16.3658 5 12.5003 5C8.63436 5 5.5 8.13409 5.5 12.0001Z" fill="#CB1F27"/>
</g>
<defs>
<clipPath id="clip0_152_42474">
<rect width="14" height="14" fill="white" transform="translate(5.5 5)"/>
</clipPath>
</defs>
</svg>
