<svg width="25" height="24" viewBox="0 0 25 24" fill="none" xmlns="http://www.w3.org/2000/svg">
<circle cx="12" cy="12" r="11.5" transform="matrix(-1 0 0 1 24.5 0)" fill="white" stroke="#D0D5DD"/>
<g clip-path="url(#clip0_152_42506)">
<path d="M6.29613 11.9168C6.2958 13.0931 6.60315 14.2416 7.18757 15.254L6.24023 18.7128L9.77996 17.7847C10.759 18.3177 11.8559 18.597 12.9707 18.597H12.9736C16.6535 18.597 19.649 15.6026 19.6506 11.9221C19.6513 10.1386 18.9573 8.46154 17.6966 7.1998C16.436 5.93817 14.7596 5.243 12.9733 5.24219C9.29299 5.24219 6.2977 8.23645 6.29618 11.9168" fill="url(#paint0_linear_152_42506)"/>
<path d="M6.05806 11.914C6.05768 13.1326 6.37605 14.3223 6.9813 15.3709L6 18.9537L9.66664 17.9923C10.6769 18.5432 11.8144 18.8336 12.9718 18.834H12.9748C16.7867 18.834 19.8898 15.7319 19.8915 11.9196C19.8921 10.072 19.1732 8.33466 17.8674 7.02772C16.5615 5.72095 14.825 5.00076 12.9748 5C9.16226 5 6.05958 8.10171 6.05806 11.914ZM8.24163 15.1903L8.10472 14.9729C7.5292 14.0578 7.22543 13.0003 7.22587 11.9145C7.22712 8.74576 9.80594 6.16775 12.977 6.16775C14.5127 6.1684 15.9558 6.76704 17.0413 7.85318C18.1268 8.93943 18.724 10.3834 18.7237 11.9191C18.7223 15.0879 16.1434 17.6662 12.9748 17.6662H12.9725C11.9408 17.6657 10.929 17.3886 10.0465 16.865L9.83654 16.7405L7.66068 17.3109L8.24163 15.1902V15.1903Z" fill="url(#paint1_linear_152_42506)"/>
<path d="M11.2468 9.02138C11.1173 8.73362 10.981 8.72782 10.8579 8.72277C10.7571 8.71843 10.6418 8.71876 10.5267 8.71876C10.4114 8.71876 10.2242 8.76211 10.0659 8.93494C9.90742 9.10793 9.46094 9.52598 9.46094 10.3762C9.46094 11.2265 10.0802 12.0483 10.1666 12.1637C10.253 12.2789 11.3622 14.0796 13.1188 14.7723C14.5787 15.348 14.8758 15.2335 15.1926 15.2046C15.5095 15.1758 16.2152 14.7867 16.3591 14.3831C16.5032 13.9796 16.5032 13.6337 16.46 13.5615C16.4168 13.4894 16.3016 13.4462 16.1287 13.3598C15.9559 13.2734 15.1062 12.8553 14.9478 12.7976C14.7893 12.74 14.6741 12.7112 14.5589 12.8842C14.4436 13.057 14.1127 13.4462 14.0118 13.5615C13.911 13.677 13.8102 13.6914 13.6374 13.6049C13.4644 13.5182 12.9079 13.3359 12.2475 12.7472C11.7338 12.2891 11.3869 11.7234 11.2861 11.5504C11.1853 11.3776 11.2753 11.284 11.362 11.1978C11.4396 11.1204 11.5348 10.996 11.6213 10.8952C11.7075 10.7942 11.7363 10.7222 11.7939 10.607C11.8516 10.4916 11.8227 10.3907 11.7796 10.3042C11.7363 10.2178 11.4004 9.36308 11.2468 9.02138Z" fill="white"/>
</g>
<defs>
<linearGradient id="paint0_linear_152_42506" x1="676.756" y1="1352.31" x2="676.756" y2="5.24219" gradientUnits="userSpaceOnUse">
<stop stop-color="#1FAF38"/>
<stop offset="1" stop-color="#60D669"/>
</linearGradient>
<linearGradient id="paint1_linear_152_42506" x1="700.574" y1="1400.37" x2="700.574" y2="5" gradientUnits="userSpaceOnUse">
<stop stop-color="#F9F9F9"/>
<stop offset="1" stop-color="white"/>
</linearGradient>
<clipPath id="clip0_152_42506">
<rect width="13.8915" height="14" fill="white" transform="translate(6 5)"/>
</clipPath>
</defs>
</svg>
