<svg width="24" height="24" viewBox="0 0 24 24" fill="none" xmlns="http://www.w3.org/2000/svg">
<circle cx="12" cy="12" r="11.6" stroke="#626262" stroke-width="0.8"/>
<path d="M8.4076 7.65955C10.3912 5.67598 13.6072 5.67598 15.5908 7.65955C17.5743 9.64313 17.5743 12.8592 15.5908 14.8427L14.8984 15.5275C14.388 16.0284 13.7259 16.6724 12.9116 17.4596C12.4028 17.9515 11.5956 17.9515 11.0869 17.4594L9.05036 15.4785C8.79442 15.2272 8.58017 15.0153 8.4076 14.8427C6.42403 12.8592 6.42403 9.64313 8.4076 7.65955ZM14.972 8.27827C13.3302 6.63641 10.6682 6.63641 9.02632 8.27827C7.38445 9.92013 7.38445 12.5821 9.02632 14.224L9.89378 15.08C10.3715 15.5475 10.972 16.1311 11.6952 16.8305C11.8647 16.9945 12.1338 16.9945 12.3034 16.8306L14.2838 14.9047C14.5573 14.6362 14.7868 14.4093 14.972 14.224C16.6139 12.5821 16.6139 9.92013 14.972 8.27827ZM11.9992 9.66077C12.9662 9.66077 13.7501 10.4447 13.7501 11.4117C13.7501 12.3787 12.9662 13.1626 11.9992 13.1626C11.0322 13.1626 10.2483 12.3787 10.2483 11.4117C10.2483 10.4447 11.0322 9.66077 11.9992 9.66077ZM11.9992 10.5358C11.5154 10.5358 11.1233 10.9279 11.1233 11.4117C11.1233 11.8954 11.5154 12.2876 11.9992 12.2876C12.4829 12.2876 12.8751 11.8954 12.8751 11.4117C12.8751 10.9279 12.4829 10.5358 11.9992 10.5358Z" fill="#626262"/>
</svg>
