<svg width="25" height="24" viewBox="0 0 25 24" fill="none" xmlns="http://www.w3.org/2000/svg">
<circle cx="12" cy="12" r="11.5" transform="matrix(-1 0 0 1 24.5 0)" fill="white" stroke="#F0F0F0"/>
<g clip-path="url(#clip0_152_42498)">
<path d="M19.1908 8.53535C19.1105 8.23859 18.9539 7.96805 18.7365 7.75066C18.5191 7.53326 18.2486 7.37661 17.9518 7.2963C16.8654 7 12.4929 7 12.4929 7C12.4929 7 8.1202 7.00897 7.03378 7.30527C6.73701 7.38559 6.46647 7.54225 6.24909 7.75965C6.03171 7.97705 5.87507 8.24761 5.79478 8.54437C5.46616 10.4747 5.33868 13.4162 5.8038 15.2693C5.8841 15.5661 6.04074 15.8366 6.25812 16.054C6.47551 16.2714 6.74604 16.428 7.0428 16.5084C8.12922 16.8046 12.5018 16.8046 12.5018 16.8046C12.5018 16.8046 16.8744 16.8046 17.9607 16.5084C18.2575 16.428 18.528 16.2714 18.7454 16.054C18.9628 15.8366 19.1195 15.5661 19.1998 15.2693C19.5464 13.3362 19.6532 10.3966 19.1908 8.53535Z" fill="#FF0000"/>
<path d="M11.1016 14.0067L14.7289 11.9057L11.1016 9.80469V14.0067Z" fill="white"/>
</g>
<defs>
<clipPath id="clip0_152_42498">
<rect width="14" height="9.84375" fill="white" transform="translate(5.5 7)"/>
</clipPath>
</defs>
</svg>
