<svg width="20" height="24" viewBox="0 0 20 24" fill="none" xmlns="http://www.w3.org/2000/svg">
<path d="M6.57681 4.55664C6.57681 4.66508 6.57681 4.74532 6.57681 4.82556C6.57681 6.78532 6.57609 8.74507 6.57754 10.7056C6.57826 11.3497 6.74235 11.9366 7.19344 12.4203C7.64235 12.9017 8.19681 13.1431 8.85031 13.1554C9.2291 13.1627 9.6079 13.1533 9.98597 13.1591C10.6727 13.1692 11.204 13.6882 11.2105 14.3489C11.2171 15.0053 10.6821 15.5272 9.98236 15.5193C9.19223 15.5099 8.40067 15.5815 7.61778 15.3653C5.66886 14.8275 4.23103 12.9935 4.21946 10.968C4.2079 8.93592 4.21657 6.90387 4.21513 4.8711C4.21513 4.77495 4.2397 4.67447 4.1891 4.57833C4.08211 4.58194 4.03946 4.67303 3.97946 4.7323C3.58766 5.11905 3.20525 5.5152 2.80982 5.89833C2.30235 6.39062 1.61272 6.41014 1.13344 5.95688C0.641149 5.49062 0.603559 4.77785 1.10452 4.26242C2.24235 3.09134 3.39681 1.93544 4.56356 0.793268C5.07681 0.290858 5.74982 0.306039 6.25802 0.808449C7.4132 1.94989 8.55826 3.10218 9.70043 4.25664C10.0416 4.60146 10.1291 5.02797 9.97513 5.48411C9.8197 5.94604 9.47488 6.20628 8.99705 6.26989C8.59296 6.32339 8.25609 6.16363 7.97272 5.88315C7.59464 5.50869 7.22019 5.12989 6.84211 4.75471C6.77633 4.68748 6.72211 4.59857 6.57681 4.55664Z" fill="white"/>
<path d="M15.8949 19.5147C16.3387 19.0672 16.7797 18.6176 17.2264 18.173C17.5488 17.852 17.9312 17.7147 18.3852 17.826C19.1811 18.0205 19.5426 18.9559 19.0785 19.6332C18.9925 19.759 18.8862 19.8725 18.7785 19.981C17.7346 21.0299 16.6893 22.0773 15.6433 23.1241C14.9558 23.8108 14.3247 23.8072 13.6337 23.1154C12.5623 22.0426 11.4946 20.967 10.419 19.8985C10.0691 19.5516 9.91727 19.1489 10.0387 18.6696C10.2484 17.8398 11.2517 17.5036 11.9132 18.0617C12.3534 18.4325 12.7445 18.8619 13.1515 19.2711C13.2332 19.3528 13.2867 19.4634 13.3647 19.5487C13.4992 19.4496 13.4645 19.3694 13.4645 19.3043C13.4667 17.3084 13.4725 15.3125 13.4638 13.3159C13.458 11.8716 12.4821 10.9123 11.0385 10.9094C10.7052 10.9087 10.3712 10.9137 10.038 10.9072C9.35776 10.8942 8.82065 10.3535 8.83221 9.69927C8.84378 9.04505 9.36499 8.53903 10.051 8.5477C10.779 8.5571 11.5091 8.48336 12.232 8.65397C14.3117 9.14481 15.8139 11.007 15.8233 13.1453C15.832 15.1593 15.8255 17.1732 15.8255 19.1879C15.8255 19.2855 15.8255 19.3831 15.8255 19.4807C15.8493 19.4923 15.8717 19.5031 15.8949 19.5147Z" fill="white"/>
</svg>
