<svg width="24" height="24" viewBox="0 0 24 24" fill="none" xmlns="http://www.w3.org/2000/svg">
<path d="M12 0C5.38286 0 0 5.38286 0 12C0 15.1886 1.25143 18.2057 3.48 20.4514L0.394286 22.4229C0.0771429 22.6286 -0.0685714 23.0143 0.0342857 23.3829C0.145714 23.7514 0.48 24 0.857143 24H12C18.6171 24 24 18.6171 24 12C24 5.38286 18.6171 0 12 0ZM6.58286 13.2857C5.87143 13.2857 5.29714 12.7114 5.29714 12C5.29714 11.2886 5.87143 10.7143 6.58286 10.7143C7.29429 10.7143 7.86857 11.2886 7.86857 12C7.86857 12.7114 7.29429 13.2857 6.58286 13.2857ZM12 13.2857C11.2886 13.2857 10.7143 12.7114 10.7143 12C10.7143 11.2886 11.2886 10.7143 12 10.7143C12.7114 10.7143 13.2857 11.2886 13.2857 12C13.2857 12.7114 12.7114 13.2857 12 13.2857ZM17.4171 13.2857C16.7057 13.2857 16.1314 12.7114 16.1314 12C16.1314 11.2886 16.7057 10.7143 17.4171 10.7143C18.1286 10.7143 18.7029 11.2886 18.7029 12C18.7029 12.7114 18.1286 13.2857 17.4171 13.2857Z" fill="white"/>
</svg>
