<svg width="20" height="20" viewBox="0 0 20 20" fill="none" xmlns="http://www.w3.org/2000/svg">
<path d="M10.002 7C9.2063 7 8.44324 7.31607 7.88063 7.87868C7.31802 8.44129 7.00195 9.20435 7.00195 10C7.00195 10.7956 7.31802 11.5587 7.88063 12.1213C8.44324 12.6839 9.2063 13 10.002 13C10.7976 13 11.5607 12.6839 12.1233 12.1213C12.6859 11.5587 13.002 10.7956 13.002 10C13.002 9.20435 12.6859 8.44129 12.1233 7.87868C11.5607 7.31607 10.7976 7 10.002 7ZM10.002 5C11.328 5 12.5998 5.52678 13.5375 6.46447C14.4752 7.40215 15.002 8.67392 15.002 10C15.002 11.3261 14.4752 12.5979 13.5375 13.5355C12.5998 14.4732 11.328 15 10.002 15C8.67587 15 7.4041 14.4732 6.46642 13.5355C5.52874 12.5979 5.00195 11.3261 5.00195 10C5.00195 8.67392 5.52874 7.40215 6.46642 6.46447C7.4041 5.52678 8.67587 5 10.002 5ZM16.502 4.75C16.502 5.08152 16.3703 5.39946 16.1358 5.63388C15.9014 5.8683 15.5835 6 15.252 6C14.9204 6 14.6025 5.8683 14.3681 5.63388C14.1336 5.39946 14.002 5.08152 14.002 4.75C14.002 4.41848 14.1336 4.10054 14.3681 3.86612C14.6025 3.6317 14.9204 3.5 15.252 3.5C15.5835 3.5 15.9014 3.6317 16.1358 3.86612C16.3703 4.10054 16.502 4.41848 16.502 4.75ZM10.002 2C7.52795 2 7.12395 2.007 5.97295 2.058C5.18895 2.095 4.66295 2.2 4.17495 2.39C3.76657 2.53994 3.39737 2.78026 3.09495 3.093C2.78196 3.3954 2.54131 3.76458 2.39095 4.173C2.20095 4.663 2.09595 5.188 2.05995 5.971C2.00795 7.075 2.00095 7.461 2.00095 10C2.00095 12.475 2.00795 12.878 2.05895 14.029C2.09595 14.812 2.20095 15.339 2.38995 15.826C2.55995 16.261 2.75995 16.574 3.09195 16.906C3.42895 17.242 3.74195 17.443 4.17195 17.609C4.66595 17.8 5.19195 17.906 5.97195 17.942C7.07595 17.994 7.46195 18 10.001 18C12.476 18 12.879 17.993 14.03 17.942C14.812 17.905 15.338 17.8 15.827 17.611C16.235 17.4603 16.604 17.2201 16.907 16.908C17.244 16.572 17.445 16.259 17.611 15.828C17.801 15.336 17.907 14.81 17.943 14.028C17.995 12.925 18.001 12.538 18.001 10C18.001 7.526 17.994 7.122 17.943 5.971C17.906 5.189 17.8 4.661 17.611 4.173C17.4602 3.76502 17.22 3.39598 16.908 3.093C16.6057 2.77985 16.2365 2.53917 15.828 2.389C15.338 2.199 14.812 2.094 14.03 2.058C12.927 2.006 12.542 2 10.002 2ZM10.002 0C12.719 0 13.058 0.00999994 14.125 0.0599999C15.189 0.11 15.915 0.277 16.552 0.525C17.212 0.779 17.768 1.123 18.324 1.678C18.8324 2.1779 19.2259 2.78259 19.477 3.45C19.724 4.087 19.892 4.813 19.942 5.878C19.989 6.944 20.002 7.283 20.002 10C20.002 12.717 19.992 13.056 19.942 14.122C19.892 15.187 19.724 15.912 19.477 16.55C19.2266 17.2178 18.833 17.8226 18.324 18.322C17.8239 18.8303 17.2193 19.2238 16.552 19.475C15.915 19.722 15.189 19.89 14.125 19.94C13.058 19.987 12.719 20 10.002 20C7.28495 20 6.94595 19.99 5.87895 19.94C4.81495 19.89 4.08995 19.722 3.45195 19.475C2.78428 19.2245 2.17948 18.8309 1.67995 18.322C1.17138 17.8222 0.777913 17.2175 0.526953 16.55C0.278953 15.913 0.111953 15.187 0.0619533 14.122C0.0139533 13.056 0.00195312 12.717 0.00195312 10C0.00195312 7.283 0.0119533 6.944 0.0619533 5.878C0.111953 4.812 0.278953 4.088 0.526953 3.45C0.777189 2.78218 1.17076 2.17732 1.67995 1.678C2.17962 1.16923 2.78438 0.775729 3.45195 0.525C4.08895 0.277 4.81395 0.11 5.87895 0.0599999C6.94595 0.0129999 7.28495 0 10.002 0Z" fill="#000094"/>
</svg>
