<svg width="24" height="24" viewBox="0 0 24 24" fill="none" xmlns="http://www.w3.org/2000/svg">
<path d="M12 9C12.5 7.02625 14.3884 6.01844 18.5 6C18.5657 5.99976 18.6309 6.01252 18.6916 6.03756C18.7524 6.0626 18.8076 6.09942 18.8541 6.1459C18.9006 6.19238 18.9374 6.24759 18.9624 6.30837C18.9875 6.36914 19.0003 6.43427 19 6.5V15.5C19 15.6326 18.9473 15.7598 18.8536 15.8536C18.7598 15.9473 18.6326 16 18.5 16C14.5 16 12.9547 16.8066 12 18M12 9C11.5 7.02625 9.61157 6.01844 5.5 6C5.43427 5.99976 5.36914 6.01252 5.30837 6.03756C5.24759 6.0626 5.19238 6.09942 5.1459 6.1459C5.09942 6.19238 5.0626 6.24759 5.03756 6.30837C5.01252 6.36914 4.99976 6.43427 5 6.5V15.4397C5 15.7484 5.19125 16 5.5 16C9.5 16 11.0509 16.8125 12 18M12 9V18" stroke="#000094" stroke-linecap="round" stroke-linejoin="round"/>
<circle cx="12" cy="12" r="11.5" stroke="#000094"/>
</svg>
