<svg width="20" height="16" viewBox="0 0 20 16" fill="none" xmlns="http://www.w3.org/2000/svg">
<path d="M12.792 6.775L9.124 4.663C8.90864 4.53901 8.66446 4.47384 8.41596 4.47402C8.16746 4.47421 7.92337 4.53974 7.70819 4.66404C7.49301 4.78835 7.31431 4.96705 7.19001 5.18223C7.06571 5.39741 7.00018 5.6415 7 5.89V10.112C6.997 10.618 7.267 11.086 7.706 11.336C7.92124 11.4617 8.16596 11.5282 8.41523 11.5285C8.6645 11.5289 8.90941 11.4631 9.125 11.338L12.792 9.226C13.0074 9.10216 13.1864 8.92371 13.3108 8.70863C13.4352 8.49356 13.5008 8.24948 13.5008 8.001C13.5008 7.75252 13.4352 7.50844 13.3108 7.29337C13.1864 7.0783 13.0074 6.89984 12.792 6.776V6.775ZM12.292 8.357L8.626 10.47C8.56247 10.5073 8.49015 10.5269 8.4165 10.5269C8.34285 10.5269 8.27053 10.5073 8.207 10.47C8.14343 10.434 8.09068 10.3816 8.05427 10.3183C8.01786 10.255 7.99912 10.183 8 10.11V5.89C7.9993 5.81713 8.01813 5.7454 8.05453 5.68226C8.09093 5.61913 8.14358 5.5669 8.207 5.531C8.26997 5.49267 8.34228 5.4724 8.416 5.4724C8.48972 5.4724 8.56203 5.49267 8.625 5.531L12.292 7.644C12.3552 7.67972 12.4079 7.73159 12.4445 7.79432C12.4811 7.85704 12.5004 7.92837 12.5004 8.001C12.5004 8.07363 12.4811 8.14496 12.4445 8.20768C12.4079 8.27041 12.3552 8.32128 12.292 8.357ZM17 0H3C2.20459 0.000794215 1.44199 0.31712 0.879557 0.879557C0.31712 1.44199 0.000794215 2.20459 0 3V13C0.000794215 13.7954 0.31712 14.558 0.879557 15.1204C1.44199 15.6829 2.20459 15.9992 3 16H17C17.7954 15.9992 18.558 15.6829 19.1204 15.1204C19.6829 14.558 19.9992 13.7954 20 13V3C19.9992 2.20459 19.6829 1.44199 19.1204 0.879557C18.558 0.31712 17.7954 0.000794215 17 0ZM19 13C18.9992 13.5302 18.7882 14.0384 18.4133 14.4133C18.0384 14.7882 17.5302 14.9992 17 15H3C2.46981 14.9992 1.96156 14.7882 1.58666 14.4133C1.21176 14.0384 1.00079 13.5302 1 13V3C1.00079 2.46981 1.21176 1.96156 1.58666 1.58666C1.96156 1.21176 2.46981 1.00079 3 1H17C17.5302 1.00079 18.0384 1.21176 18.4133 1.58666C18.7882 1.96156 18.9992 2.46981 19 3V13Z" fill="#000094"/>
</svg>
