<svg width="14" height="16" viewBox="0 0 14 16" fill="none" xmlns="http://www.w3.org/2000/svg">
<path fill-rule="evenodd" clip-rule="evenodd" d="M3 1.25C3 0.83579 3.33579 0.5 3.75 0.5C4.16421 0.5 4.5 0.83579 4.5 1.25V2H9V1.25C9 0.83579 9.33578 0.5 9.75 0.5C10.1642 0.5 10.5 0.83579 10.5 1.25V2H11.25C12.4927 2 13.5 3.00736 13.5 4.25V5.75V13.25C13.5 14.4927 12.4927 15.5 11.25 15.5H2.25C1.00736 15.5 0 14.4927 0 13.25V5.75V4.25C0 3.00736 1.00736 2 2.25 2H3V1.25ZM3.75 3.5H9.75H11.25C11.6642 3.5 12 3.83579 12 4.25V5H1.5V4.25C1.5 3.83579 1.83579 3.5 2.25 3.5H3.75ZM1.5 13.25V6.5H12V13.25C12 13.6642 11.6642 14 11.25 14H2.25C1.83579 14 1.5 13.6642 1.5 13.25ZM3.75 8C3.33579 8 3 8.33577 3 8.75V10.25C3 10.6642 3.33579 11 3.75 11H5.25C5.66423 11 6 10.6642 6 10.25V8.75C6 8.33577 5.66423 8 5.25 8H3.75Z" fill="#292E35"/>
</svg>
