<svg width="16" height="16" viewBox="0 0 16 16" fill="none" xmlns="http://www.w3.org/2000/svg">
<g clip-path="url(#clip0_314_38129)">
<path d="M7.69435 16.0001C7.31482 15.9477 6.93328 15.9094 6.55711 15.8402C4.61238 15.484 3.02092 14.5228 1.77333 13.0004C0.772027 11.7805 0.175148 10.3697 0.0371991 8.80435C-0.187556 6.25497 0.605143 4.04636 2.44289 2.24304C3.54109 1.16427 4.85665 0.451146 6.37004 0.166836C9.22255 -0.368849 11.7056 0.383934 13.754 2.44737C15.0177 3.7197 15.7492 5.2777 15.945 7.05547C16.198 9.35348 15.5769 11.4102 14.0736 13.1772C12.9122 14.5423 11.4385 15.4107 9.68686 15.7965C9.34838 15.8711 8.99846 15.8953 8.65326 15.9437C8.53011 15.9612 8.40764 15.9807 8.28517 15.9995C8.08801 16.0001 7.89151 16.0001 7.69435 16.0001ZM14.867 7.99444C14.8744 4.21506 11.7904 1.13268 8.00053 1.13201C4.21737 1.13067 1.15425 4.17944 1.1354 7.96419C1.11656 11.751 4.2241 14.8609 8.01062 14.8448C11.7944 14.8286 14.8596 11.7657 14.867 7.99444Z" fill="white"/>
<path d="M6.35152 10.0696C6.4067 9.97619 6.4464 9.86663 6.52042 9.79203C8.15023 8.15808 9.78408 6.5275 11.4179 4.89826C11.5121 4.80417 11.6111 4.7094 11.7228 4.63815C11.9408 4.49835 12.2342 4.54002 12.4138 4.71948C12.6016 4.907 12.6413 5.17989 12.5 5.40841C12.4401 5.50587 12.3587 5.59257 12.2772 5.67457C10.4617 7.48999 8.6455 9.30406 6.82794 11.1175C6.42217 11.5228 6.13686 11.5221 5.73176 11.1195C5.24995 10.6403 4.76948 10.159 4.28835 9.67844C4.23788 9.62803 4.18606 9.57762 4.14232 9.52183C3.92901 9.25163 3.93843 8.94044 4.16318 8.722C4.38188 8.50961 4.71565 8.49751 4.96328 8.72872C5.33608 9.07621 5.69206 9.44185 6.04938 9.80547C6.11734 9.8747 6.15839 9.97081 6.21155 10.0548C6.25865 10.0595 6.30509 10.0649 6.35152 10.0696Z" fill="white"/>
</g>
<defs>
<clipPath id="clip0_314_38129">
<rect width="16" height="16" fill="white"/>
</clipPath>
</defs>
</svg>
