<svg width="16" height="16" viewBox="0 0 16 16" fill="none" xmlns="http://www.w3.org/2000/svg">
<g clip-path="url(#clip0_314_38144)">
<path d="M6.94732 16C6.66838 15.9597 6.38744 15.9294 6.11049 15.8773C3.12212 15.317 0.822488 13.0625 0.168295 10.0563C-0.663226 6.2361 1.66696 2.30324 5.38324 1.26961C5.77808 1.15969 6.18753 1.1049 6.59034 1.02456C6.62488 1.0175 6.65941 1.00943 6.7245 0.994979C6.48839 0.793294 6.27055 0.607408 6.04241 0.412782C6.15333 0.275972 6.26026 0.144541 6.37781 0C6.59831 0.186222 6.81416 0.368075 7.02935 0.550936C7.21465 0.70825 7.40194 0.863211 7.58358 1.02456C7.71044 1.13717 7.73568 1.27532 7.63672 1.39835C7.30265 1.81348 6.96027 2.22156 6.60993 2.64611C6.47245 2.5298 6.34361 2.42089 6.20447 2.30324C6.40969 2.05282 6.61026 1.80811 6.82313 1.54894C3.52161 1.80542 0.558818 4.62867 0.53823 8.45329C0.518305 12.1609 3.31606 15.1257 6.80752 15.4309C8.81094 15.606 10.5822 15.0074 12.07 13.6342C13.5533 12.2655 14.2766 10.5347 14.3267 8.48589C14.4167 8.48589 14.5018 8.48589 14.5871 8.48589C14.6685 8.48589 14.7501 8.48589 14.8571 8.48589C14.8421 8.74842 14.8401 8.9975 14.8126 9.24322C14.5725 11.3646 13.632 13.0998 11.9746 14.4205C10.8223 15.3388 9.50166 15.8474 8.03853 15.9728C7.99337 15.9765 7.9492 15.9906 7.9047 16C7.58524 16 7.26645 16 6.94732 16Z" fill="white"/>
<path d="M10.3421 11.958C10.7476 12.0582 10.8701 12.2165 10.8704 12.6209C10.8704 12.7563 10.8721 12.8918 10.8701 13.0269C10.8648 13.3543 10.6536 13.5738 10.3285 13.5826C10.1126 13.5883 9.89644 13.5839 9.68026 13.5839C7.9933 13.5839 6.30602 13.5839 4.61906 13.5839C4.17607 13.5839 3.98148 13.3859 3.98114 12.9355C3.98114 12.8313 3.98114 12.7271 3.98114 12.6232C3.98148 12.2185 4.10268 12.0605 4.50882 11.9573C4.50882 11.7361 4.51745 11.5086 4.50715 11.2824C4.48225 10.7472 4.68614 10.3304 5.09161 9.98922C5.58176 9.57678 6.05397 9.14215 6.53349 8.71659C6.6796 8.58684 6.67994 8.38146 6.53283 8.2507C6.03438 7.80766 5.53792 7.36194 5.03416 6.92529C4.67386 6.61335 4.49653 6.22679 4.50815 5.74712C4.51413 5.50308 4.50915 5.2587 4.50915 5.01769C4.07413 4.88357 3.98114 4.7555 3.98148 4.29835C3.98148 4.16826 3.97849 4.03784 3.9828 3.90775C3.99177 3.64085 4.17308 3.43514 4.43476 3.39513C4.50051 3.38505 4.56792 3.38337 4.63467 3.38337C6.49663 3.3827 8.35859 3.3827 10.2205 3.38303C10.6788 3.38303 10.8704 3.57564 10.8708 4.03414C10.8708 4.12254 10.8708 4.21129 10.8708 4.29969C10.8708 4.75886 10.7751 4.89029 10.3424 5.01601C10.3424 5.2782 10.3414 5.54341 10.3428 5.80863C10.3447 6.24024 10.186 6.59755 9.86522 6.88193C9.35416 7.33438 8.84342 7.78682 8.33302 8.23994C8.16831 8.38616 8.16731 8.58113 8.33169 8.72701C8.83811 9.17677 9.34419 9.62686 9.8526 10.0743C10.1883 10.3694 10.3507 10.7392 10.3434 11.1889C10.3388 11.4437 10.3421 11.6985 10.3421 11.958ZM9.81408 11.9637C9.81408 11.7056 9.80777 11.4662 9.81574 11.2276C9.82637 10.9082 9.71247 10.6561 9.47138 10.4474C8.94803 9.99359 8.43264 9.53039 7.91427 9.07055C7.5895 8.78281 7.58717 8.19221 7.91128 7.90246C8.24668 7.60262 8.58473 7.3058 8.92113 7.00697C8.96031 6.97202 8.99751 6.9347 9.04566 6.88832C7.95545 6.88832 6.8918 6.88832 5.81853 6.88832C5.83447 6.91084 5.83879 6.92092 5.84642 6.92765C6.19809 7.24026 6.54976 7.55287 6.90243 7.86447C7.281 8.19927 7.27967 8.77306 6.90044 9.10752C6.38439 9.56232 5.86568 10.0138 5.3586 10.4783C5.24503 10.5825 5.11652 10.7257 5.09493 10.8666C5.03981 11.2262 5.04114 11.5946 5.01988 11.9637C6.64042 11.9637 8.21812 11.9637 9.81408 11.9637ZM5.04213 5.00324C5.04213 5.31753 5.03682 5.61367 5.04545 5.90947C5.04811 6.00023 5.0853 6.09099 5.11353 6.17973C5.15039 6.29503 5.21946 6.34377 5.35296 6.34343C6.71115 6.33738 8.06902 6.33973 9.42721 6.33973C9.67627 6.33973 9.75398 6.30746 9.77656 6.05906C9.80811 5.71115 9.78453 5.3582 9.78453 5.00357C8.21447 5.00324 6.63644 5.00324 5.04213 5.00324ZM4.51745 13.0357C6.46243 13.0357 8.39777 13.0357 10.3308 13.0357C10.3308 12.8552 10.3308 12.6864 10.3308 12.5157C8.38814 12.5157 6.45678 12.5157 4.51745 12.5157C4.51745 12.6894 4.51745 12.8542 4.51745 13.0357ZM10.3338 3.93363C8.39113 3.93363 6.45877 3.93363 4.51944 3.93363C4.51944 4.11044 4.51944 4.27851 4.51944 4.45264C6.46176 4.45264 8.39379 4.45264 10.3338 4.45264C10.3338 4.27986 10.3338 4.11549 10.3338 3.93363Z" fill="white"/>
<path d="M9.28808 1.20312C9.47305 1.26027 9.63378 1.30968 9.81078 1.36414C9.75399 1.53691 9.70119 1.69692 9.6444 1.86902C9.48069 1.81994 9.32594 1.77389 9.15625 1.72314C9.20075 1.54935 9.24193 1.38565 9.28808 1.20312Z" fill="white"/>
<path d="M12.5879 3.85497C12.724 3.73328 12.8506 3.62034 12.9854 3.5C13.1019 3.64286 13.2125 3.77833 13.3341 3.92724C13.1929 4.03682 13.0598 4.14035 12.916 4.25161C12.8091 4.1222 12.7048 3.99614 12.5879 3.85497Z" fill="white"/>
<path d="M14.1794 5.35938C14.2521 5.53585 14.3182 5.69652 14.3906 5.87199C14.2249 5.93451 14.0685 5.99367 13.8971 6.05821C13.8324 5.90325 13.7693 5.75333 13.6992 5.58627C13.8546 5.51266 14.0051 5.44173 14.1794 5.35938Z" fill="white"/>
<path d="M8.15234 1.54538C8.17094 1.36925 8.18887 1.20252 8.20846 1.01562C8.3931 1.0405 8.56246 1.06369 8.74875 1.0889C8.71654 1.2721 8.68765 1.43748 8.65644 1.61597C8.48542 1.59211 8.32635 1.56992 8.15234 1.54538Z" fill="white"/>
<path d="M10.3296 1.5625C10.5023 1.64519 10.657 1.71914 10.8254 1.79948C10.7414 1.96553 10.665 2.11545 10.5846 2.27445C10.4306 2.20151 10.2844 2.13226 10.123 2.05596C10.1898 1.89629 10.2545 1.742 10.3296 1.5625Z" fill="white"/>
<path d="M13.6516 4.39062C13.7503 4.55702 13.8389 4.70693 13.9336 4.8666C13.7765 4.95467 13.6294 5.03736 13.4727 5.12543C13.3856 4.98022 13.3013 4.83937 13.209 4.68508C13.3528 4.58962 13.4919 4.49685 13.6516 4.39062Z" fill="white"/>
<path d="M14.6956 6.94374C14.5126 6.9824 14.3529 7.01601 14.1799 7.05265C14.1377 6.88424 14.0975 6.72558 14.0547 6.55449C14.2257 6.5044 14.3868 6.45734 14.5621 6.40625C14.6066 6.58474 14.6484 6.75382 14.6956 6.94374Z" fill="white"/>
<path d="M14.2617 7.56076C14.444 7.53689 14.6054 7.51572 14.7851 7.49219C14.803 7.6737 14.8199 7.84581 14.8395 8.04245C14.6599 8.0522 14.4948 8.06128 14.3129 8.07102C14.2953 7.89892 14.2793 7.73824 14.2617 7.56076Z" fill="white"/>
<path d="M11.7622 2.38569C11.6509 2.54166 11.553 2.67915 11.4524 2.82066C11.3086 2.72318 11.1777 2.63444 11.0293 2.53393C11.1206 2.38301 11.2096 2.23578 11.3049 2.07812C11.4633 2.18435 11.6071 2.28082 11.7622 2.38569Z" fill="white"/>
<path d="M12.1988 2.72656C12.3413 2.85799 12.4688 2.97598 12.6079 3.10439C12.4744 3.22842 12.3509 3.34271 12.2187 3.46574C12.1095 3.36658 11.9883 3.25666 11.8574 3.138C11.9677 3.00522 12.0753 2.87547 12.1988 2.72656Z" fill="white"/>
<path d="M7.16797 9.81756C7.16797 9.63705 7.16797 9.472 7.16797 9.29688C7.33998 9.29688 7.50636 9.29688 7.6807 9.29688C7.6807 9.47268 7.6807 9.64108 7.6807 9.81756C7.50868 9.81756 7.34596 9.81756 7.16797 9.81756Z" fill="white"/>
<path d="M7.68054 10.895C7.50587 10.895 7.34713 10.895 7.17578 10.895C7.17578 10.7239 7.17578 10.5555 7.17578 10.375C7.33817 10.375 7.50421 10.375 7.68054 10.375C7.68054 10.5434 7.68054 10.7121 7.68054 10.895Z" fill="white"/>
</g>
<defs>
<clipPath id="clip0_314_38144">
<rect width="16" height="16" fill="white"/>
</clipPath>
</defs>
</svg>
