<svg width="34" height="34" viewBox="0 0 34 34" fill="none" xmlns="http://www.w3.org/2000/svg">
<rect x="1" y="1" width="32" height="32" rx="4" fill="white" stroke="#E1E1E1"/>
<rect width="17.7778" height="17.7778" transform="matrix(-1 0 0 1 25.8887 8.11133)" fill="white"/>
<path fill-rule="evenodd" clip-rule="evenodd" d="M20.7025 12.1858C20.7025 13.209 21.5312 14.0377 22.5544 14.0377C23.5775 14.0377 24.4062 13.209 24.4062 12.1858C24.4062 11.1627 23.5775 10.334 22.5544 10.334C21.5312 10.334 20.7025 11.1627 20.7025 12.1858ZM9.59143 12.1858C9.59143 11.6747 10.0062 11.2599 10.5174 11.2599H18.8507C19.3618 11.2599 19.7766 11.6747 19.7766 12.1858C19.7766 12.6969 19.3618 13.1118 18.8507 13.1118H10.5174C10.0062 13.1118 9.59143 12.6969 9.59143 12.1858ZM10.5174 15.8895C10.0062 15.8895 9.59143 16.3044 9.59143 16.8155C9.59143 17.3266 10.0062 17.7414 10.5174 17.7414H18.8507C19.3618 17.7414 19.7766 17.3266 19.7766 16.8155C19.7766 16.3044 19.3618 15.8895 18.8507 15.8895H10.5174ZM10.5174 20.5192C10.0062 20.5192 9.59143 20.934 9.59143 21.4451C9.59143 21.9562 10.0062 22.371 10.5174 22.371H18.8507C19.3618 22.371 19.7766 21.9562 19.7766 21.4451C19.7766 20.934 19.3618 20.5192 18.8507 20.5192H10.5174ZM20.7025 21.4451C20.7025 22.4682 21.5312 23.2969 22.5544 23.2969C23.5775 23.2969 24.4062 22.4682 24.4062 21.4451C24.4062 20.4219 23.5775 19.5932 22.5544 19.5932C21.5312 19.5932 20.7025 20.4219 20.7025 21.4451ZM22.5544 18.6673C21.5312 18.6673 20.7025 17.8386 20.7025 16.8155C20.7025 15.7923 21.5312 14.9636 22.5544 14.9636C23.5775 14.9636 24.4062 15.7923 24.4062 16.8155C24.4062 17.8386 23.5775 18.6673 22.5544 18.6673Z" fill="#626262"/>
</svg>
