<svg width="14" height="15" viewBox="0 0 14 15" fill="none" xmlns="http://www.w3.org/2000/svg">
<path d="M6.9987 2.50065C7.91536 2.50065 8.66536 3.25065 8.66536 4.16732C8.66536 5.08398 7.91536 5.83398 6.9987 5.83398C6.08203 5.83398 5.33203 5.08398 5.33203 4.16732C5.33203 3.25065 6.08203 2.50065 6.9987 2.50065ZM6.9987 10.834C9.2487 10.834 11.832 11.909 11.9987 12.5007H1.9987C2.19036 11.9007 4.75703 10.834 6.9987 10.834ZM6.9987 0.833984C5.15703 0.833984 3.66536 2.32565 3.66536 4.16732C3.66536 6.00898 5.15703 7.50065 6.9987 7.50065C8.84036 7.50065 10.332 6.00898 10.332 4.16732C10.332 2.32565 8.84036 0.833984 6.9987 0.833984ZM6.9987 9.16732C4.7737 9.16732 0.332031 10.284 0.332031 12.5007V14.1673H13.6654V12.5007C13.6654 10.284 9.2237 9.16732 6.9987 9.16732Z" fill="#000094"/>
</svg>
