<svg width="24" height="24" viewBox="0 0 24 24" fill="none" xmlns="http://www.w3.org/2000/svg">
<g clip-path="url(#clip0_285_31353)">
<rect width="24" height="24" rx="4" fill="#000094"/>
<path d="M16.3333 9.66667C16.3333 9.05383 16.2126 8.447 15.9781 7.88081C15.7436 7.31462 15.3998 6.80017 14.9665 6.36683C14.5332 5.93349 14.0187 5.58975 13.4525 5.35523C12.8863 5.12071 12.2795 5 11.6667 5C11.0538 5 10.447 5.12071 9.88081 5.35523C9.31462 5.58975 8.80017 5.93349 8.36683 6.36683C7.93349 6.80017 7.58975 7.31462 7.35523 7.88081C7.12071 8.447 7 9.05383 7 9.66667C7 10.5913 7.27267 11.4513 7.73667 12.1767H7.73133L11.6667 18.3333L15.602 12.1767H15.5973C16.0779 11.4277 16.3334 10.5565 16.3333 9.66667ZM11.6667 11.6667C11.1362 11.6667 10.6275 11.456 10.2525 11.0809C9.87738 10.7058 9.66667 10.1971 9.66667 9.66667C9.66667 9.13623 9.87738 8.62753 10.2525 8.25245C10.6275 7.87738 11.1362 7.66667 11.6667 7.66667C12.1971 7.66667 12.7058 7.87738 13.0809 8.25245C13.456 8.62753 13.6667 9.13623 13.6667 9.66667C13.6667 10.1971 13.456 10.7058 13.0809 11.0809C12.7058 11.456 12.1971 11.6667 11.6667 11.6667Z" fill="white"/>
</g>
<defs>
<clipPath id="clip0_285_31353">
<rect width="24" height="24" rx="4" fill="white"/>
</clipPath>
</defs>
</svg>
