<svg width="14" height="15" viewBox="0 0 14 15" fill="none" xmlns="http://www.w3.org/2000/svg">
<path d="M6.87501 0C3.76841 0 1.25001 2.5184 1.25001 5.625V8.62675L0.0446255 11.6431C-0.032312 11.8356 -0.00876216 12.0538 0.107513 12.2255C0.2238 12.3971 0.41765 12.5 0.625 12.5H4.375C4.375 13.8855 5.48955 15 6.875 15C8.26045 15 9.375 13.8855 9.375 12.5H13.125C13.3324 12.5 13.5262 12.3971 13.6425 12.2255C13.7587 12.0538 13.7824 11.8356 13.7054 11.6431L12.5 8.62675V5.625C12.5 2.5184 9.98162 0 6.87501 0ZM8.125 12.5C8.125 13.1951 7.57009 13.75 6.875 13.75C6.17991 13.75 5.625 13.1951 5.625 12.5H8.125ZM2.50001 5.625C2.50001 3.20875 4.45876 1.25 6.87501 1.25C9.29125 1.25 11.25 3.20875 11.25 5.625V8.747C11.25 8.82645 11.2651 8.90516 11.2946 8.97894L12.2021 11.25H1.54783L2.45539 8.97894C2.48486 8.90516 2.50001 8.82645 2.50001 8.747V5.625Z" fill="#000094"/>
</svg>
