<svg width="20" height="15" viewBox="0 0 20 15" fill="none" xmlns="http://www.w3.org/2000/svg">
<path d="M19.9882 3.64883V11.7894H5.45157C5.45157 11.6803 5.43945 11.5834 5.43945 11.4744V4.16973C5.43945 3.98802 5.45157 3.84265 5.45157 3.66095V3.63672C10.2123 3.63672 15.0215 3.63672 19.7823 3.66095H19.9882V3.64883Z" fill="#FDFDFD"/>
<path d="M19.7819 5.02969H5.45117V5.01758C10.2119 5.01758 15.0211 5.01758 19.7819 5.02969Z" fill="#FDFDFD"/>
<path d="M5.43913 5.37038V10.2038C5.43913 10.2886 5.45124 10.3734 5.45124 10.4582V14.9767H1.47789C1.45366 14.9161 1.3931 14.9282 1.34464 14.9161C0.678377 14.7223 0.254391 14.2862 0.0605694 13.632C0.0484555 13.5836 0.0605694 13.523 0 13.4988V1.9785C0.0726832 1.93004 0.0605693 1.85736 0.0726832 1.78468C0.290733 1.06996 0.956996 0.524835 1.69594 0.512721C2.94367 0.488493 4.1914 0.512721 5.43913 0.512721C5.43913 1.37281 5.43913 2.23289 5.45124 3.10509V5.01908C5.45124 5.14022 5.43913 5.24924 5.43913 5.37038Z" fill="#F83939"/>
<path d="M19.9999 10.6876C19.9878 11.475 19.9878 12.2745 19.9878 13.074C19.9878 14.0674 19.4306 14.7457 18.4494 14.9517C18.4494 14.9517 18.4372 14.9638 18.4372 14.9759H5.45117V10.4574C10.2119 10.4574 15.009 10.4574 19.7698 10.4453C19.794 10.4453 19.8303 10.4453 19.8424 10.4574C19.9394 10.4574 19.9757 10.4938 19.9878 10.5665C19.9999 10.6028 19.9999 10.6391 19.9999 10.6876Z" fill="#151515"/>
<path d="M20.0003 2.38976C20.0003 3.18928 19.9882 4.00091 20.0003 4.80042C20.0003 4.84888 20.0003 4.88522 19.9882 4.90945C19.9761 4.99425 19.9398 5.01847 19.8428 5.01847C19.8186 5.03059 19.8065 5.03059 19.7823 5.03059C15.0215 5.01847 10.2123 5.01847 5.45157 5.01847V3.10448C5.43945 2.23228 5.43945 1.3722 5.43945 0.512114C5.50002 0.5 5.54848 0.5 5.59693 0.5H18.1106C18.2075 0.5 18.3044 0.5 18.3892 0.524228C19.1645 0.609025 19.7338 1.10569 19.9398 1.85675C19.964 1.94155 19.9761 2.02635 19.9882 2.12326C20.0003 2.20806 20.0003 2.29285 20.0003 2.38976Z" fill="#249E58"/>
</svg>
