<svg width="25" height="24" viewBox="0 0 25 24" fill="none" xmlns="http://www.w3.org/2000/svg">
<path d="M10.5 5H14.5C14.5 3.89543 13.6046 3 12.5 3C11.3954 3 10.5 3.89543 10.5 5ZM9 5C9 3.067 10.567 1.5 12.5 1.5C14.433 1.5 16 3.067 16 5H21.75C22.1642 5 22.5 5.33579 22.5 5.75C22.5 6.16421 22.1642 6.5 21.75 6.5H20.4309L19.2589 18.6112C19.0729 20.5334 17.4575 22 15.5263 22H9.47369C7.54254 22 5.92715 20.5334 5.74113 18.6112L4.56908 6.5H3.25C2.83579 6.5 2.5 6.16421 2.5 5.75C2.5 5.33579 2.83579 5 3.25 5H9ZM11 9.75C11 9.33579 10.6642 9 10.25 9C9.83579 9 9.5 9.33579 9.5 9.75V17.25C9.5 17.6642 9.83579 18 10.25 18C10.6642 18 11 17.6642 11 17.25V9.75ZM14.75 9C14.3358 9 14 9.33579 14 9.75V17.25C14 17.6642 14.3358 18 14.75 18C15.1642 18 15.5 17.6642 15.5 17.25V9.75C15.5 9.33579 15.1642 9 14.75 9Z" fill="#000094"/>
</svg>
