<svg width="22" height="20" viewBox="0 0 22 20" fill="none" xmlns="http://www.w3.org/2000/svg">
<path d="M20.5835 10C20.5835 15.2222 16.1128 19.5 10.5417 19.5C4.97065 19.5 0.5 15.2222 0.5 10C0.5 4.77782 4.97065 0.5 10.5417 0.5C16.1128 0.5 20.5835 4.77782 20.5835 10Z" stroke="#231C17"/>
<path d="M15.4015 13.4735C15.5248 13.5968 15.5941 13.764 15.5941 13.9383C15.5941 14.1127 15.5248 14.2799 15.4015 14.4032C15.2782 14.5265 15.111 14.5957 14.9367 14.5957C14.7623 14.5957 14.5951 14.5265 14.4718 14.4032L10.9997 10.93L7.52653 14.4021C7.40324 14.5254 7.23604 14.5946 7.06169 14.5946C6.88734 14.5946 6.72013 14.5254 6.59684 14.4021C6.47356 14.2788 6.4043 14.1116 6.4043 13.9372C6.4043 13.7629 6.47356 13.5957 6.59684 13.4724L10.07 10.0003L6.59794 6.52708C6.47465 6.40379 6.40539 6.23658 6.40539 6.06223C6.40539 5.88788 6.47465 5.72067 6.59794 5.59739C6.72122 5.4741 6.88843 5.40484 7.06278 5.40484C7.23713 5.40484 7.40434 5.4741 7.52762 5.59739L10.9997 9.07059L14.4729 5.59684C14.5962 5.47356 14.7634 5.4043 14.9378 5.4043C15.1121 5.4043 15.2793 5.47356 15.4026 5.59684C15.5259 5.72013 15.5952 5.88733 15.5952 6.06169C15.5952 6.23604 15.5259 6.40324 15.4026 6.52653L11.9294 10.0003L15.4015 13.4735Z" fill="#231C17"/>
</svg>
