<svg width="20" height="23" viewBox="0 0 20 23" fill="none" xmlns="http://www.w3.org/2000/svg">
<g clip-path="url(#clip0_221_16981)">
<path d="M13.5143 13.8346C14.1269 13.8346 14.6659 13.493 14.9436 12.9763L17.8675 7.56797C18.1697 7.01797 17.7777 6.33464 17.157 6.33464H5.06931L4.30158 4.66797H1.63086V6.33464H3.26433L6.20456 12.6596L5.10198 14.693C4.50576 15.8096 5.28982 17.168 6.53126 17.168H16.3321V15.5013H6.53126L7.42967 13.8346H13.5143ZM5.8452 8.0013H15.7685L13.5143 12.168H7.78086L5.8452 8.0013ZM6.53126 18.0013C5.63285 18.0013 4.90596 18.7513 4.90596 19.668C4.90596 20.5846 5.63285 21.3346 6.53126 21.3346C7.42966 21.3346 8.16472 20.5846 8.16472 19.668C8.16472 18.7513 7.42966 18.0013 6.53126 18.0013ZM14.6986 18.0013C13.8002 18.0013 13.0733 18.7513 13.0733 19.668C13.0733 20.5846 13.8002 21.3346 14.6986 21.3346C15.597 21.3346 16.3321 20.5846 16.3321 19.668C16.3321 18.7513 15.597 18.0013 14.6986 18.0013Z" fill="#000094"/>
</g>
<g clip-path="url(#clip1_221_16981)">
<rect x="9.80078" width="10.1992" height="10.4065" rx="5.0996" fill="#EC971F"/>
<path d="M14.4767 3.065C14.78 2.97167 15.0273 2.925 15.2187 2.925C15.6853 2.925 16.0587 3.04633 16.3387 3.289C16.6047 3.52233 16.7377 3.835 16.7377 4.227C16.7377 4.885 16.446 5.27933 15.8627 5.41C16.1987 5.466 16.4623 5.60833 16.6537 5.837C16.8497 6.06567 16.9477 6.348 16.9477 6.684C16.9477 7.16933 16.7587 7.538 16.3807 7.79C16.0913 7.98133 15.7297 8.077 15.2957 8.077C15.0157 8.077 14.7357 8.03733 14.4557 7.958L14.2317 7.678V7.461C14.5537 7.531 14.836 7.566 15.0787 7.566C15.9233 7.566 16.3457 7.28133 16.3457 6.712C16.3457 6.404 16.2173 6.145 15.9607 5.935C15.816 5.81833 15.662 5.739 15.4987 5.697C15.34 5.65033 15.1043 5.62467 14.7917 5.62V5.165H15.3867C15.6107 5.165 15.7927 5.09267 15.9327 4.948C16.0773 4.79867 16.1497 4.60733 16.1497 4.374C16.1497 4.09867 16.0587 3.88167 15.8767 3.723C15.6947 3.55967 15.4473 3.478 15.1347 3.478C14.9807 3.478 14.7613 3.50833 14.4767 3.569V3.065Z" fill="white"/>
</g>
<defs>
<clipPath id="clip0_221_16981">
<rect width="19.6016" height="20" fill="white" transform="translate(0 3)"/>
</clipPath>
<clipPath id="clip1_221_16981">
<rect x="9.80078" width="10.1992" height="10.4065" rx="5.0996" fill="white"/>
</clipPath>
</defs>
</svg>
