<svg width="24" height="24" viewBox="0 0 24 24" fill="none" xmlns="http://www.w3.org/2000/svg">
<path d="M16.4015 15.4735C16.5248 15.5968 16.5941 15.764 16.5941 15.9383C16.5941 16.1127 16.5248 16.2799 16.4015 16.4032C16.2782 16.5265 16.111 16.5957 15.9367 16.5957C15.7623 16.5957 15.5951 16.5265 15.4718 16.4032L11.9997 12.93L8.52653 16.4021C8.40324 16.5254 8.23604 16.5946 8.06169 16.5946C7.88734 16.5946 7.72013 16.5254 7.59684 16.4021C7.47356 16.2788 7.4043 16.1116 7.4043 15.9372C7.4043 15.7629 7.47356 15.5957 7.59684 15.4724L11.07 12.0003L7.59794 8.52708C7.47465 8.40379 7.40539 8.23658 7.40539 8.06223C7.40539 7.88788 7.47465 7.72067 7.59794 7.59739C7.72122 7.4741 7.88843 7.40484 8.06278 7.40484C8.23713 7.40484 8.40434 7.4741 8.52762 7.59739L11.9997 11.0706L15.4729 7.59684C15.5962 7.47356 15.7634 7.4043 15.9378 7.4043C16.1121 7.4043 16.2793 7.47356 16.4026 7.59684C16.5259 7.72013 16.5952 7.88733 16.5952 8.06169C16.5952 8.23604 16.5259 8.40324 16.4026 8.52653L12.9294 12.0003L16.4015 15.4735Z" fill="#626262"/>
<circle cx="12" cy="12" r="11.5" stroke="#626262"/>
</svg>
