<svg width="25" height="24" viewBox="0 0 25 24" fill="none" xmlns="http://www.w3.org/2000/svg">
<g clip-path="url(#clip0_303_19458)">
<path d="M19.9434 8.57681C19.8349 8.57681 19.7547 8.57681 19.6744 8.57681C17.7147 8.57681 15.7549 8.57609 13.7944 8.57754C13.1503 8.57826 12.5634 8.74235 12.0797 9.19344C11.5983 9.64235 11.3569 10.1968 11.3446 10.8503C11.3373 11.2291 11.3467 11.6079 11.3409 11.986C11.3308 12.6727 10.8118 13.204 10.1511 13.2105C9.49468 13.2171 8.97276 12.6821 8.98071 11.9824C8.99011 11.1922 8.91854 10.4007 9.13468 9.61778C9.67252 7.66886 11.5065 6.23103 13.532 6.21946C15.5641 6.2079 17.5961 6.21657 19.6289 6.21513C19.725 6.21513 19.8255 6.2397 19.9217 6.1891C19.9181 6.08211 19.827 6.03946 19.7677 5.97946C19.3809 5.58766 18.9848 5.20525 18.6017 4.80982C18.1094 4.30235 18.0899 3.61272 18.5431 3.13344C19.0094 2.64115 19.7222 2.60356 20.2376 3.10452C21.4087 4.24235 22.5646 5.39681 23.7067 6.56356C24.2091 7.07681 24.194 7.74983 23.6916 8.25802C22.5501 9.4132 21.3978 10.5583 20.2434 11.7004C19.8985 12.0416 19.472 12.1291 19.0159 11.9751C18.554 11.8197 18.2937 11.4749 18.2301 10.9971C18.1766 10.593 18.3364 10.2561 18.6169 9.97272C18.9913 9.59464 19.3701 9.22019 19.7453 8.84211C19.8125 8.77633 19.9014 8.72211 19.9434 8.57681Z" fill="#000094"/>
<path d="M4.98531 17.8949C5.43278 18.3387 5.88242 18.7797 6.327 19.2264C6.64796 19.5488 6.78531 19.9312 6.67399 20.3852C6.47953 21.1811 5.54411 21.5426 4.86676 21.0785C4.74097 20.9925 4.62748 20.8862 4.51904 20.7785C3.47013 19.7346 2.42266 18.6893 1.37591 17.6433C0.689165 16.9558 0.692779 16.3247 1.38459 15.6337C2.45736 14.5623 3.53302 13.4946 4.60145 12.419C4.94844 12.0691 5.35109 11.9173 5.83037 12.0387C6.66025 12.2484 6.99639 13.2517 6.43832 13.9132C6.06748 14.3534 5.63808 14.7445 5.22892 15.1515C5.14724 15.2332 5.03663 15.2867 4.95133 15.3647C5.05037 15.4992 5.13061 15.4645 5.19567 15.4645C7.19158 15.4667 9.18748 15.4725 11.1841 15.4638C12.6284 15.458 13.5877 14.4821 13.5906 13.0385C13.5913 12.7052 13.5863 12.3713 13.5928 12.038C13.6058 11.3578 14.1465 10.8206 14.8007 10.8322C15.4549 10.8438 15.961 11.365 15.9523 12.051C15.9429 12.779 16.0166 13.5091 15.846 14.232C15.3552 16.3117 13.493 17.8139 11.3547 17.8233C9.34073 17.832 7.32676 17.8255 5.31206 17.8255C5.21447 17.8255 5.11688 17.8255 5.01929 17.8255C5.00772 17.8493 4.99688 17.8717 4.98531 17.8949Z" fill="#000094"/>
</g>
<defs>
<clipPath id="clip0_303_19458">
<rect width="24" height="24" fill="white" transform="translate(0.5)"/>
</clipPath>
</defs>
</svg>
