<svg width="150" height="98" viewBox="0 0 150 98" fill="none" xmlns="http://www.w3.org/2000/svg">
<path d="M11.3314 0C5.12835 0 0.0957031 5.03906 0.0957031 11.25C0.0957031 14.7891 1.75765 18.1172 4.58997 20.25L55.525 58.5C58.1935 60.4922 61.8451 60.4922 64.5135 58.5L77.9495 48.4219C83.544 34.4062 96.6054 24.2109 112.195 22.6875L115.449 20.25C118.281 18.1172 119.943 14.7891 119.943 11.25C119.943 5.03906 114.91 0 108.707 0H11.3314ZM69.0078 64.5C63.6709 68.5078 56.3677 68.5078 51.0307 64.5L0.0957031 26.25V75C0.0957031 83.2734 6.8137 90 15.0766 90H84.41C78.5347 82.875 75.0002 73.7109 75.0002 63.75C75.0002 62.4375 75.0704 61.1484 75.1874 59.8594L69.0078 64.5ZM149.905 63.75C149.905 45.1172 134.807 30 116.198 30C97.5885 30 82.4906 45.1172 82.4906 63.75C82.4906 82.3828 97.5885 97.5 116.198 97.5C134.807 97.5 149.905 82.3828 149.905 63.75ZM131.951 53.6016C133.402 55.0547 133.402 57.4453 131.951 58.8984L115.097 75.7734C113.646 77.2266 111.259 77.2266 109.807 75.7734L100.444 66.3984C98.993 64.9453 98.993 62.5547 100.444 61.1016C101.896 59.6484 104.283 59.6484 105.734 61.1016L112.452 67.8281L126.661 53.6016C128.112 52.1484 130.5 52.1484 131.951 53.6016Z" fill="#000094"/>
</svg>
