<svg width="20" height="11" viewBox="0 0 20 11" fill="none" xmlns="http://www.w3.org/2000/svg">
<g clip-path="url(#clip0_268_26908)">
<path d="M19.9997 0.0390625H0V10.5071H19.9997V0.0390625Z" fill="white"/>
<path d="M19.9829 0H0V0.828047H19.9829V0Z" fill="#B22234"/>
<path d="M19.9829 1.61914H0V2.44719H19.9829V1.61914Z" fill="#B22234"/>
<path d="M19.9829 3.24023H0V4.06828H19.9829V3.24023Z" fill="#B22234"/>
<path d="M19.9829 4.85938H0V5.68742H19.9829V4.85938Z" fill="#B22234"/>
<path d="M19.9829 6.47852H0V7.30656H19.9829V6.47852Z" fill="#B22234"/>
<path d="M19.9829 8.09961H0V8.92766H19.9829V8.09961Z" fill="#B22234"/>
<path d="M19.9829 9.71875H0V10.5468H19.9829V9.71875Z" fill="#B22234"/>
<path d="M7.981 0H0V5.68755H7.981V0Z" fill="#3C3B6E"/>
<path d="M0.679663 0.216797L0.754337 0.44902H0.996045L0.800568 0.592451L0.875241 0.824674L0.679663 0.681142L0.484186 0.824674L0.558859 0.592451L0.363281 0.44902H0.60499L0.679663 0.216797Z" fill="white"/>
<path d="M1.33787 0.800781L1.41254 1.0329H1.65425L1.45877 1.17634L1.53344 1.40856L1.33787 1.26503L1.14239 1.40856L1.21706 1.17634L1.02148 1.0329H1.26319L1.33787 0.800781Z" fill="white"/>
<path d="M1.33787 1.94141L1.41254 2.17353H1.65425L1.45877 2.31706L1.53344 2.54918L1.33787 2.40575L1.14239 2.54918L1.21706 2.31706L1.02148 2.17353H1.26319L1.33787 1.94141Z" fill="white"/>
<path d="M1.33787 3.08008L1.41254 3.3122H1.65425L1.45877 3.45573L1.53344 3.68786L1.33787 3.54442L1.14239 3.68786L1.21706 3.45573L1.02148 3.3122H1.26319L1.33787 3.08008Z" fill="white"/>
<path d="M1.33787 4.2207L1.41254 4.45283H1.65425L1.45877 4.59636L1.53344 4.82848L1.33787 4.68505L1.14239 4.82848L1.21706 4.59636L1.02148 4.45283H1.26319L1.33787 4.2207Z" fill="white"/>
<path d="M2.6699 0.800781L2.74457 1.0329H2.98628L2.7908 1.17634L2.86548 1.40856L2.6699 1.26503L2.47442 1.40856L2.54909 1.17634L2.35352 1.0329H2.59522L2.6699 0.800781Z" fill="white"/>
<path d="M2.6699 1.94141L2.74457 2.17353H2.98628L2.7908 2.31706L2.86548 2.54918L2.6699 2.40575L2.47442 2.54918L2.54909 2.31706L2.35352 2.17353H2.59522L2.6699 1.94141Z" fill="white"/>
<path d="M2.6699 3.08008L2.74457 3.3122H2.98628L2.7908 3.45573L2.86548 3.68786L2.6699 3.54442L2.47442 3.68786L2.54909 3.45573L2.35352 3.3122H2.59522L2.6699 3.08008Z" fill="white"/>
<path d="M2.6699 4.2207L2.74457 4.45283H2.98628L2.7908 4.59636L2.86548 4.82848L2.6699 4.68505L2.47442 4.82848L2.54909 4.59636L2.35352 4.45283H2.59522L2.6699 4.2207Z" fill="white"/>
<path d="M4.00388 0.800781L4.07866 1.0329H4.32026L4.12479 1.17634L4.19946 1.40856L4.00388 1.26503L3.8084 1.40856L3.88308 1.17634L3.6875 1.0329H3.92921L4.00388 0.800781Z" fill="white"/>
<path d="M4.00388 1.94141L4.07866 2.17353H4.32026L4.12479 2.31706L4.19946 2.54918L4.00388 2.40575L3.8084 2.54918L3.88308 2.31706L3.6875 2.17353H3.92921L4.00388 1.94141Z" fill="white"/>
<path d="M4.00388 3.08008L4.07866 3.3122H4.32026L4.12479 3.45573L4.19946 3.68786L4.00388 3.54442L3.8084 3.68786L3.88308 3.45573L3.6875 3.3122H3.92921L4.00388 3.08008Z" fill="white"/>
<path d="M4.00388 4.2207L4.07866 4.45283H4.32026L4.12479 4.59636L4.19946 4.82848L4.00388 4.68505L3.8084 4.82848L3.88308 4.59636L3.6875 4.45283H3.92921L4.00388 4.2207Z" fill="white"/>
<path d="M5.33787 0.800781L5.41264 1.0329H5.65435L5.45877 1.17634L5.53344 1.40856L5.33787 1.26503L5.14239 1.40856L5.21706 1.17634L5.02148 1.0329H5.26319L5.33787 0.800781Z" fill="white"/>
<path d="M5.33787 1.94141L5.41264 2.17353H5.65435L5.45877 2.31706L5.53344 2.54918L5.33787 2.40575L5.14239 2.54918L5.21706 2.31706L5.02148 2.17353H5.26319L5.33787 1.94141Z" fill="white"/>
<path d="M5.33787 3.08008L5.41264 3.3122H5.65435L5.45877 3.45573L5.53344 3.68786L5.33787 3.54442L5.14239 3.68786L5.21706 3.45573L5.02148 3.3122H5.26319L5.33787 3.08008Z" fill="white"/>
<path d="M5.33787 4.2207L5.41264 4.45283H5.65435L5.45877 4.59636L5.53344 4.82848L5.33787 4.68505L5.14239 4.82848L5.21706 4.59636L5.02148 4.45283H5.26319L5.33787 4.2207Z" fill="white"/>
<path d="M6.67185 0.800781L6.74652 1.0329H6.98813L6.79265 1.17634L6.86733 1.40856L6.67185 1.26503L6.47627 1.40856L6.55095 1.17634L6.35547 1.0329H6.59708L6.67185 0.800781Z" fill="white"/>
<path d="M6.67185 1.94141L6.74652 2.17353H6.98813L6.79265 2.31706L6.86733 2.54918L6.67185 2.40575L6.47627 2.54918L6.55095 2.31706L6.35547 2.17353H6.59708L6.67185 1.94141Z" fill="white"/>
<path d="M6.67185 3.08008L6.74652 3.3122H6.98813L6.79265 3.45573L6.86733 3.68786L6.67185 3.54442L6.47627 3.68786L6.55095 3.45573L6.35547 3.3122H6.59708L6.67185 3.08008Z" fill="white"/>
<path d="M6.67185 4.2207L6.74652 4.45283H6.98813L6.79265 4.59636L6.86733 4.82848L6.67185 4.68505L6.47627 4.82848L6.55095 4.59636L6.35547 4.45283H6.59708L6.67185 4.2207Z" fill="white"/>
<path d="M0.679663 1.35742L0.754337 1.58964H0.996045L0.800568 1.73308L0.875241 1.9653L0.679663 1.82177L0.484186 1.9653L0.558859 1.73308L0.363281 1.58964H0.60499L0.679663 1.35742Z" fill="white"/>
<path d="M0.679663 2.49805L0.754337 2.73017H0.996045L0.800568 2.8737L0.875241 3.10582L0.679663 2.96239L0.484186 3.10582L0.558859 2.8737L0.363281 2.73017H0.60499L0.679663 2.49805Z" fill="white"/>
<path d="M0.679663 3.63672L0.754337 3.86884H0.996045L0.800568 4.01237L0.875241 4.2445L0.679663 4.10106L0.484186 4.2445L0.558859 4.01237L0.363281 3.86884H0.60499L0.679663 3.63672Z" fill="white"/>
<path d="M0.679663 4.77734L0.754337 5.00947H0.996045L0.800568 5.153L0.875241 5.38512L0.679663 5.24169L0.484186 5.38512L0.558859 5.153L0.363281 5.00947H0.60499L0.679663 4.77734Z" fill="white"/>
<path d="M1.99607 0.216797L2.07074 0.44902H2.31245L2.11697 0.592451L2.19165 0.824674L1.99607 0.681142L1.80059 0.824674L1.87527 0.592451L1.67969 0.44902H1.9214L1.99607 0.216797Z" fill="white"/>
<path d="M1.99607 1.35742L2.07074 1.58964H2.31245L2.11697 1.73308L2.19165 1.9653L1.99607 1.82177L1.80059 1.9653L1.87527 1.73308L1.67969 1.58964H1.9214L1.99607 1.35742Z" fill="white"/>
<path d="M1.99607 2.49805L2.07074 2.73017H2.31245L2.11697 2.8737L2.19165 3.10582L1.99607 2.96239L1.80059 3.10582L1.87527 2.8737L1.67969 2.73017H1.9214L1.99607 2.49805Z" fill="white"/>
<path d="M1.99607 3.63672L2.07074 3.86884H2.31245L2.11697 4.01237L2.19165 4.2445L1.99607 4.10106L1.80059 4.2445L1.87527 4.01237L1.67969 3.86884H1.9214L1.99607 3.63672Z" fill="white"/>
<path d="M1.99607 4.77734L2.07074 5.00947H2.31245L2.11697 5.153L2.19165 5.38512L1.99607 5.24169L1.80059 5.38512L1.87527 5.153L1.67969 5.00947H1.9214L1.99607 4.77734Z" fill="white"/>
<path d="M3.34568 0.216797L3.42045 0.44902H3.66206L3.46658 0.592451L3.54126 0.824674L3.34568 0.681142L3.1502 0.824674L3.22487 0.592451L3.0293 0.44902H3.27101L3.34568 0.216797Z" fill="white"/>
<path d="M3.34568 1.35742L3.42045 1.58964H3.66206L3.46658 1.73308L3.54126 1.9653L3.34568 1.82177L3.1502 1.9653L3.22487 1.73308L3.0293 1.58964H3.27101L3.34568 1.35742Z" fill="white"/>
<path d="M3.34568 2.49805L3.42045 2.73017H3.66206L3.46658 2.8737L3.54126 3.10582L3.34568 2.96239L3.1502 3.10582L3.22487 2.8737L3.0293 2.73017H3.27101L3.34568 2.49805Z" fill="white"/>
<path d="M3.34568 3.63672L3.42045 3.86884H3.66206L3.46658 4.01237L3.54126 4.2445L3.34568 4.10106L3.1502 4.2445L3.22487 4.01237L3.0293 3.86884H3.27101L3.34568 3.63672Z" fill="white"/>
<path d="M3.34568 4.77734L3.42045 5.00947H3.66206L3.46658 5.153L3.54126 5.38512L3.34568 5.24169L3.1502 5.38512L3.22487 5.153L3.0293 5.00947H3.27101L3.34568 4.77734Z" fill="white"/>
<path d="M4.67185 0.216797L4.74652 0.44902H4.98823L4.79265 0.592451L4.86733 0.824674L4.67185 0.681142L4.47627 0.824674L4.55105 0.592451L4.35547 0.44902H4.59718L4.67185 0.216797Z" fill="white"/>
<path d="M4.67185 1.35742L4.74652 1.58964H4.98823L4.79265 1.73308L4.86733 1.9653L4.67185 1.82177L4.47627 1.9653L4.55105 1.73308L4.35547 1.58964H4.59718L4.67185 1.35742Z" fill="white"/>
<path d="M4.67185 2.49805L4.74652 2.73017H4.98823L4.79265 2.8737L4.86733 3.10582L4.67185 2.96239L4.47627 3.10582L4.55105 2.8737L4.35547 2.73017H4.59718L4.67185 2.49805Z" fill="white"/>
<path d="M4.67185 3.63672L4.74652 3.86884H4.98823L4.79265 4.01237L4.86733 4.2445L4.67185 4.10106L4.47627 4.2445L4.55105 4.01237L4.35547 3.86884H4.59718L4.67185 3.63672Z" fill="white"/>
<path d="M4.67185 4.77734L4.74652 5.00947H4.98823L4.79265 5.153L4.86733 5.38512L4.67185 5.24169L4.47627 5.38512L4.55105 5.153L4.35547 5.00947H4.59718L4.67185 4.77734Z" fill="white"/>
<path d="M5.99617 0.216797L6.07084 0.44902H6.31255L6.11697 0.592451L6.19165 0.824674L5.99617 0.681142L5.80059 0.824674L5.87527 0.592451L5.67969 0.44902H5.9214L5.99617 0.216797Z" fill="white"/>
<path d="M5.99617 1.35742L6.07084 1.58964H6.31255L6.11697 1.73308L6.19165 1.9653L5.99617 1.82177L5.80059 1.9653L5.87527 1.73308L5.67969 1.58964H5.9214L5.99617 1.35742Z" fill="white"/>
<path d="M5.99617 2.49805L6.07084 2.73017H6.31255L6.11697 2.8737L6.19165 3.10582L5.99617 2.96239L5.80059 3.10582L5.87527 2.8737L5.67969 2.73017H5.9214L5.99617 2.49805Z" fill="white"/>
<path d="M5.99617 3.63672L6.07084 3.86884H6.31255L6.11697 4.01237L6.19165 4.2445L5.99617 4.10106L5.80059 4.2445L5.87527 4.01237L5.67969 3.86884H5.9214L5.99617 3.63672Z" fill="white"/>
<path d="M5.99617 4.77734L6.07084 5.00947H6.31255L6.11697 5.153L6.19165 5.38512L5.99617 5.24169L5.80059 5.38512L5.87527 5.153L5.67969 5.00947H5.9214L5.99617 4.77734Z" fill="white"/>
<path d="M7.34568 0.216797L7.42045 0.44902H7.66216L7.46658 0.592451L7.54126 0.824674L7.34568 0.681142L7.1502 0.824674L7.22487 0.592451L7.0293 0.44902H7.27101L7.34568 0.216797Z" fill="white"/>
<path d="M7.34568 1.35742L7.42045 1.58964H7.66216L7.46658 1.73308L7.54126 1.9653L7.34568 1.82177L7.1502 1.9653L7.22487 1.73308L7.0293 1.58964H7.27101L7.34568 1.35742Z" fill="white"/>
<path d="M7.34568 2.49805L7.42045 2.73017H7.66216L7.46658 2.8737L7.54126 3.10582L7.34568 2.96239L7.1502 3.10582L7.22487 2.8737L7.0293 2.73017H7.27101L7.34568 2.49805Z" fill="white"/>
<path d="M7.34568 3.63672L7.42045 3.86884H7.66216L7.46658 4.01237L7.54126 4.2445L7.34568 4.10106L7.1502 4.2445L7.22487 4.01237L7.0293 3.86884H7.27101L7.34568 3.63672Z" fill="white"/>
<path d="M7.34568 4.77734L7.42045 5.00947H7.66216L7.46658 5.153L7.54126 5.38512L7.34568 5.24169L7.1502 5.38512L7.22487 5.153L7.0293 5.00947H7.27101L7.34568 4.77734Z" fill="white"/>
</g>
<defs>
<clipPath id="clip0_268_26908">
<rect width="20" height="10.5464" rx="1" fill="white"/>
</clipPath>
</defs>
</svg>
