<svg width="45" height="40" viewBox="0 0 45 40" fill="none" xmlns="http://www.w3.org/2000/svg">
<g clip-path="url(#clip0_278_28289)">
<path d="M44.9995 0.0239981C43.681 1.18852 42.4811 2.27442 41.3419 3.42428C37.2744 7.52941 33.6855 12.0249 30.288 16.6737C25.9104 22.6641 21.8564 28.8638 18.0977 35.2527C18.0235 35.3779 17.9413 35.4978 17.8334 35.667C16.8951 34.0922 15.9432 32.5945 14.9483 31.1222C11.8798 26.5787 8.67109 22.1325 5.40442 17.7289C5.18197 17.4291 5.18736 17.2693 5.46239 17.0121C6.32928 16.202 7.18134 15.3746 8.00778 14.5245C8.2936 14.2301 8.47426 14.1927 8.83018 14.4419C11.6533 16.4165 14.5007 18.3592 17.3251 20.3338C17.6703 20.5749 17.8118 20.5283 18.0586 20.2152C22.3971 14.7097 27.167 9.60263 32.5247 5.04582C34.5631 3.31236 36.6704 1.66285 38.9313 0.215864C39.1322 0.086621 39.3317 -0.00131747 39.5838 1.49349e-05C41.265 0.00934174 42.9462 0.00401214 44.6274 0.00534454C44.7056 0.00534454 44.7838 0.0120065 44.9995 0.0239981Z" fill="#EC971F"/>
<path d="M6.55416 34.2478C6.56495 34.6782 6.20633 35.046 5.77086 35.0513C5.35966 35.0566 4.99026 34.7182 4.96599 34.3158C4.94172 33.9041 5.30574 33.507 5.73042 33.4817C6.1524 33.4564 6.54338 33.8201 6.55416 34.2478Z" fill="#626262"/>
<path d="M3.02497 31.5566C2.60703 31.5446 2.22683 31.1422 2.2511 30.7345C2.27402 30.3361 2.64882 29.983 3.04788 29.9844C3.48335 29.9857 3.84332 30.3495 3.83793 30.7812C3.83118 31.2129 3.45774 31.5699 3.02497 31.5566Z" fill="#626262"/>
<path d="M13.4386 37.8556C13.874 37.865 14.2327 38.2367 14.2178 38.6631C14.2044 39.0575 13.8309 39.4186 13.4318 39.4252C13.0152 39.4319 12.6243 39.0455 12.627 38.6324C12.631 38.2047 13.0045 37.8463 13.4386 37.8556Z" fill="#626262"/>
<path d="M17.8588 6.22308C17.4341 6.2364 17.058 5.86733 17.0566 5.43829C17.0553 5.02392 17.387 4.67749 17.8049 4.65351C18.2336 4.62953 18.6219 4.97862 18.6435 5.40632C18.665 5.81003 18.2795 6.20975 17.8588 6.22308Z" fill="#626262"/>
<path d="M10.0945 7.72754C10.0864 8.16057 9.71569 8.51499 9.28427 8.503C8.8879 8.491 8.5158 8.1166 8.51175 7.72754C8.50771 7.29851 8.86768 6.94409 9.31123 6.94142C9.75883 6.93876 10.1026 7.28518 10.0945 7.72754Z" fill="#626262"/>
<path d="M35.7085 22.3188C35.7085 22.7505 35.3472 23.1009 34.9063 23.097C34.4857 23.093 34.1324 22.7599 34.1176 22.3535C34.1028 21.9418 34.483 21.5434 34.8982 21.5354C35.3202 21.5247 35.7085 21.9018 35.7085 22.3188Z" fill="#626262"/>
<path d="M9.30877 37.7248C8.89622 37.7275 8.49986 37.3291 8.51199 36.9227C8.52412 36.515 8.87331 36.1685 9.2845 36.1566C9.72536 36.1446 10.0867 36.4883 10.0934 36.9254C10.1015 37.3597 9.74559 37.7221 9.30877 37.7248Z" fill="#626262"/>
<path d="M35.1159 26.7071C35.1065 27.1428 34.7411 27.4892 34.3043 27.4732C33.9066 27.4599 33.5426 27.0922 33.5372 26.6978C33.5318 26.2887 33.9214 25.9023 34.3407 25.9023C34.7694 25.9037 35.124 26.2714 35.1159 26.7071Z" fill="#626262"/>
<path d="M18.6435 39.2289C18.6367 39.6393 18.2377 40.0123 17.817 39.999C17.4166 39.987 17.0594 39.6219 17.0567 39.2222C17.054 38.7865 17.4072 38.4388 17.8494 38.4414C18.2943 38.4454 18.6502 38.7972 18.6435 39.2289Z" fill="#626262"/>
<path d="M3.83567 13.8691C3.84511 14.2902 3.47705 14.6566 3.04293 14.6579C2.6196 14.6593 2.24076 14.2822 2.24615 13.8665C2.25154 13.4614 2.59668 13.1257 3.02001 13.1137C3.46492 13.1003 3.82623 13.4348 3.83567 13.8691Z" fill="#626262"/>
<path d="M1.56415 22.2999C1.57493 22.7436 1.2271 23.0966 0.776801 23.098C0.346727 23.0993 0.011027 22.7742 0.000241486 22.3492C-0.0105441 21.9028 0.341334 21.5377 0.779497 21.5391C1.19204 21.5404 1.55336 21.8908 1.56415 22.2999Z" fill="#626262"/>
<path d="M33.4328 30.7461C33.4463 31.1685 33.081 31.5482 32.6563 31.5562C32.2464 31.5642 31.8918 31.2297 31.8703 30.818C31.8474 30.3743 32.1736 30.0066 32.6077 29.9853C33.0324 29.964 33.4194 30.321 33.4328 30.7461Z" fill="#626262"/>
<path d="M22.2506 37.8557C22.6699 37.8438 23.0649 38.2222 23.0622 38.6325C23.0595 39.0509 22.6793 39.428 22.26 39.4266C21.8515 39.424 21.5023 39.0816 21.4888 38.6685C21.4727 38.2288 21.8124 37.8677 22.2506 37.8557Z" fill="#626262"/>
<path d="M22.3335 5.24046C22.7569 5.27111 23.075 5.62819 23.0562 6.04923C23.0359 6.48359 22.6423 6.82069 22.2041 6.77938C21.7484 6.73675 21.4451 6.37034 21.4909 5.91999C21.5354 5.50561 21.9007 5.20982 22.3335 5.24046Z" fill="#626262"/>
<path d="M6.56349 10.3796C6.57428 10.802 6.20892 11.1697 5.77615 11.1737C5.37438 11.1764 4.99824 10.8286 4.97936 10.4329C4.95914 10.0025 5.30293 9.64012 5.74783 9.62547C6.19139 9.61081 6.55271 9.94391 6.56349 10.3796Z" fill="#626262"/>
<path d="M2.13558 26.6707C2.14637 27.1078 1.79853 27.4702 1.36441 27.4728C0.938384 27.4755 0.567631 27.1051 0.570327 26.6814C0.573024 26.279 0.920857 25.9233 1.32801 25.9033C1.75674 25.8819 2.12479 26.2324 2.13558 26.6707Z" fill="#626262"/>
<path d="M26.3595 36.1566C26.7991 36.1446 27.1523 36.487 27.155 36.928C27.1577 37.369 26.8058 37.7288 26.3771 37.7261C25.9686 37.7235 25.6234 37.385 25.61 36.9707C25.5938 36.523 25.92 36.1685 26.3595 36.1566Z" fill="#626262"/>
<path d="M13.4063 5.24237C13.8485 5.23304 14.2179 5.5808 14.2193 6.00584C14.2206 6.42554 13.8418 6.79595 13.4171 6.79195C13.0126 6.78796 12.65 6.44286 12.6297 6.04048C12.6095 5.61678 12.9641 5.25037 13.4063 5.24237Z" fill="#626262"/>
<path d="M29.9236 35.0436C29.5084 35.0489 29.1579 34.7092 29.143 34.2895C29.1282 33.8431 29.4707 33.4767 29.9075 33.4727C30.3254 33.4687 30.6746 33.8031 30.6881 34.2242C30.7043 34.6692 30.3591 35.0383 29.9236 35.0436Z" fill="#626262"/>
<path d="M34.3568 18.7226C33.9052 18.7333 33.5371 18.3895 33.5371 17.9578C33.5371 17.5435 33.8755 17.2077 34.3069 17.1957C34.764 17.1824 35.1145 17.5128 35.1145 17.9592C35.1158 18.3815 34.7882 18.712 34.3568 18.7226Z" fill="#626262"/>
<path d="M2.13367 17.9604C2.13367 18.4174 1.79932 18.7345 1.33284 18.7225C0.891982 18.7105 0.584594 18.3974 0.585942 17.9577C0.585942 17.5167 0.890634 17.2062 1.33554 17.1956C1.80201 17.1849 2.13502 17.5034 2.13367 17.9604Z" fill="#626262"/>
</g>
<defs>
<clipPath id="clip0_278_28289">
<rect width="45" height="40" fill="white"/>
</clipPath>
</defs>
</svg>
