<svg width="20" height="21" viewBox="0 0 20 21" fill="none" xmlns="http://www.w3.org/2000/svg">
<g clip-path="url(#clip0_42_5609)">
<path d="M5.32231 10.3482L8.16647 13.1932C10.593 12.1654 12.5227 10.2313 13.5448 7.80233L10.7115 4.964L15.9273 -0.256836L18.569 2.38483C19.0279 2.84536 19.3908 3.39252 19.6364 3.99452C19.8821 4.59652 20.0056 5.24134 19.9998 5.8915C19.9998 11.9315 12.2898 19.6415 6.24981 19.6415C5.59994 19.6471 4.95543 19.5237 4.35363 19.2783C3.75183 19.033 3.2047 18.6707 2.74397 18.2123L0.101473 15.569L5.32231 10.3482ZM3.92314 17.034C4.2294 17.337 4.59276 17.5762 4.99215 17.7377C5.39154 17.8992 5.81902 17.9798 6.24981 17.9748C11.444 17.9748 18.3331 11.0865 18.3331 5.8915C18.3383 5.46062 18.2576 5.03302 18.096 4.63359C17.9343 4.23416 17.6948 3.87086 17.3915 3.56483L15.9273 2.10066L13.064 4.964L15.509 7.41067L15.304 7.9215C14.7035 9.52945 13.7642 10.9894 12.5498 12.2024C11.3354 13.4154 9.8743 14.3529 8.26564 14.9515L7.76064 15.1448L5.32231 12.7048L2.45814 15.569L3.92314 17.034Z" fill="#292E35"/>
</g>
<defs>
<clipPath id="clip0_42_5609">
<rect width="20" height="20" fill="white" transform="matrix(-1 0 0 1 20 0.5)"/>
</clipPath>
</defs>
</svg>
