<svg width="18" height="16" viewBox="0 0 18 16" fill="none" xmlns="http://www.w3.org/2000/svg">
<path d="M12.7513 0C11.3013 0 9.90964 0.675 9.0013 1.74167C8.09297 0.675 6.7013 0 5.2513 0C2.68464 0 0.667969 2.01667 0.667969 4.58333C0.667969 7.73333 3.5013 10.3 7.79297 14.2L9.0013 15.2917L10.2096 14.1917C14.5013 10.3 17.3346 7.73333 17.3346 4.58333C17.3346 2.01667 15.318 0 12.7513 0ZM9.08464 12.9583L9.0013 13.0417L8.91797 12.9583C4.9513 9.36667 2.33464 6.99167 2.33464 4.58333C2.33464 2.91667 3.58464 1.66667 5.2513 1.66667C6.53464 1.66667 7.78464 2.49167 8.2263 3.63333H9.78464C10.218 2.49167 11.468 1.66667 12.7513 1.66667C14.418 1.66667 15.668 2.91667 15.668 4.58333C15.668 6.99167 13.0513 9.36667 9.08464 12.9583Z" fill="#000094"/>
</svg>
