<svg width="20" height="20" viewBox="0 0 20 20" fill="none" xmlns="http://www.w3.org/2000/svg">
<path d="M0 10.2667V18.8889C0 19.5025 0.497461 20 1.11111 20H5.55556C6.1692 20 6.66667 19.5025 6.66667 18.8889V12.7778C6.66667 12.471 6.9154 12.2222 7.22222 12.2222H12.7778C13.0846 12.2222 13.3333 12.471 13.3333 12.7778V18.8889C13.3333 19.5025 13.8308 20 14.4444 20H18.8889C19.5025 20 20 19.5025 20 18.8889V10.2667C19.9992 9.38291 19.6475 8.53563 19.0222 7.91111L11.4333 0.322222C11.2264 0.116951 10.947 0.00122736 10.6556 0H9.34444C9.05296 0.00122736 8.77362 0.116951 8.56667 0.322222L0.977777 7.91111C0.352478 8.53563 0.000778198 9.38291 0 10.2667Z" fill="#292E35"/>
</svg>
