<svg width="24" height="24" viewBox="0 0 24 24" fill="none" xmlns="http://www.w3.org/2000/svg">
<g clip-path="url(#clip0_152_42011)">
<rect width="24" height="24" rx="4" fill="#000094"/>
<path fill-rule="evenodd" clip-rule="evenodd" d="M12.03 11.6328C12.0716 11.6564 12.1226 11.6562 12.1642 11.6324L17.6385 8.49457L12.1738 5.35397C12.132 5.32993 12.0805 5.32993 12.0388 5.35397L6.53058 8.51957L12.03 11.6328ZM12.5131 12.215C12.471 12.2392 12.445 12.284 12.445 12.3326V18.671L17.9321 15.5175C17.9741 15.4933 18 15.4485 18 15.4V9.07031L12.5131 12.215ZM13.6608 13.0664C13.6608 13.1707 13.7737 13.2359 13.864 13.1837L16.1744 11.8498C16.2164 11.8256 16.2422 11.7808 16.2422 11.7324V11.3232C16.2422 11.2189 16.1293 11.1537 16.039 11.2059L13.7286 12.5398C13.6866 12.564 13.6608 12.6087 13.6608 12.6571V13.0664ZM11.7676 12.3418C11.7676 12.293 11.7413 12.248 11.6989 12.2239L6.21266 9.11714V15.3983C6.21266 15.4468 6.23857 15.4916 6.28061 15.5158L11.7676 18.6693V12.3418Z" fill="white"/>
</g>
<defs>
<clipPath id="clip0_152_42011">
<rect width="24" height="24" rx="4" fill="white"/>
</clipPath>
</defs>
</svg>
