<svg width="53" height="74" viewBox="0 0 53 74" fill="none" xmlns="http://www.w3.org/2000/svg">
<path d="M27.4966 0C28.8202 0.456719 29.9634 1.26802 31.0287 2.12943C32.2573 3.12188 33.5866 3.29917 35.0355 3.10453C35.9109 2.98698 36.7863 2.98891 37.6636 2.9812C39.3461 2.96964 40.5653 3.78672 41.3609 5.24552C41.923 6.27651 42.4338 7.34026 42.9219 8.40979C43.2789 9.19219 43.7973 9.74911 44.5797 10.1037C45.531 10.5373 46.4558 11.0326 47.3863 11.5124C49.3593 12.5318 50.2215 14.1776 49.9993 16.4245C49.8987 17.4536 49.8474 18.4865 49.7619 19.5175C49.7088 20.1689 49.8721 20.747 50.2367 21.2885C50.8937 22.2617 51.5318 23.2483 52.1698 24.235C53.275 25.9463 53.2769 27.6652 52.1717 29.3765C51.5223 30.3843 50.8633 31.3864 50.2025 32.3846C49.8873 32.8606 49.7164 33.3694 49.76 33.9475C49.836 34.9785 49.8664 36.0153 49.9841 37.0405C50.2538 39.3896 49.3992 41.0661 47.3256 42.1299C46.3723 42.6194 45.4228 43.1146 44.4562 43.5733C43.7764 43.8951 43.3301 44.3981 42.9864 45.0706C42.2648 46.4774 41.7388 47.9902 40.7647 49.2582C40.5197 49.5761 40.7172 49.8536 40.8444 50.1292C42.9295 54.6675 45.0164 59.2039 47.1034 63.7421C47.3749 64.3318 47.6294 64.9273 47.9142 65.5093C48.22 66.1317 48.3833 66.7503 47.8364 67.3092C47.28 67.8777 46.6818 67.6772 46.0742 67.3516C43.2865 65.8542 40.4912 64.3665 37.6978 62.8769C36.9648 62.4857 36.9591 62.4895 36.7768 63.3336C36.116 66.4131 35.4476 69.4906 34.8038 72.574C34.6861 73.1367 34.4848 73.6262 34.0461 74C33.6663 74 33.2865 74 32.9067 74C32.5839 73.6763 32.3523 73.2947 32.1605 72.8746C30.4172 69.0609 28.6607 65.253 26.9041 61.4451C26.8054 61.2331 26.7636 60.892 26.53 60.8708C26.2129 60.8438 26.1939 61.2234 26.0914 61.4451C24.331 65.251 22.5764 69.0609 20.8332 72.8746C20.6414 73.2947 20.4097 73.6763 20.0869 74.0019C19.7071 74.0019 19.3273 74.0019 18.9475 74.0019C18.5069 73.63 18.3075 73.1405 18.1898 72.5778C17.5404 69.4714 16.8548 66.3726 16.2149 63.2642C16.0877 62.6476 15.93 62.5242 15.3509 62.8383C12.5499 64.3646 9.72993 65.8523 6.91377 67.3496C6.55677 67.5404 6.19976 67.7389 5.7687 67.6503C4.93316 67.4768 4.57805 66.627 4.99392 65.7058C5.87314 63.7576 6.76755 61.817 7.66196 59.8764C9.14695 56.6485 10.6281 53.4188 12.1302 50.1986C12.3467 49.7342 12.341 49.4104 12.022 48.9653C11.1959 47.8129 10.6889 46.4716 10.0736 45.1997C9.69955 44.427 9.19063 43.8662 8.40825 43.5097C7.47776 43.0877 6.57766 42.5982 5.66616 42.1318C3.64376 41.097 2.76834 39.4551 2.99622 37.185C3.09876 36.1559 3.14813 35.123 3.23169 34.092C3.28486 33.4388 3.11775 32.8626 2.75315 32.323C2.1094 31.371 1.48844 30.4017 0.857986 29.4381C-0.292784 27.6826 -0.290885 25.9289 0.861784 24.1733C1.49414 23.2117 2.1151 22.2443 2.75695 21.2885C3.10446 20.772 3.28486 20.2209 3.23359 19.5907C3.15193 18.5597 3.11205 17.5249 3.00001 16.4978C2.75315 14.193 3.62477 12.5299 5.67185 11.4854C6.60424 11.0094 7.52904 10.5142 8.47852 10.0748C9.20962 9.73563 9.70335 9.21146 10.0395 8.47724C10.5123 7.44818 11.0136 6.43646 11.5301 5.43438C12.3752 3.79443 13.6855 2.9099 15.5465 2.9812C16.8017 3.02938 18.0588 3.07755 19.3121 3.16234C20.0375 3.21245 20.6357 2.9812 21.2452 2.59578C22.6505 1.7074 23.9095 0.572344 25.5027 0C26.1673 0 26.832 0 27.4966 0ZM47.5705 15.8291C47.7642 14.8308 47.1338 14.0889 46.0267 13.5879C45.0297 13.1369 44.0688 12.6089 43.0928 12.1136C42.149 11.6338 41.4407 10.9266 40.9792 9.95146C40.4456 8.82219 39.8778 7.71026 39.329 6.5887C38.9265 5.76391 38.2599 5.37078 37.375 5.40932C36.4046 5.45172 35.4343 5.52302 34.4696 5.63094C32.9732 5.80052 31.6003 5.56542 30.3602 4.625C29.5247 3.99292 28.6227 3.44948 27.7606 2.85401C26.9174 2.27203 26.0933 2.26818 25.2463 2.85401C24.3064 3.50536 23.3417 4.12396 22.4036 4.77724C21.4693 5.42859 20.4553 5.75234 19.3197 5.66755C18.2088 5.58661 17.0941 5.54036 15.987 5.42859C14.8305 5.31297 14.1488 5.64635 13.6133 6.71203C13.0854 7.76229 12.5556 8.81448 12.06 9.88208C11.5719 10.9323 10.8066 11.6762 9.7888 12.1772C8.80704 12.6609 7.84806 13.1947 6.85111 13.6457C5.83706 14.1062 5.35283 14.8231 5.44777 15.9697C5.54082 17.072 5.51614 18.1859 5.63957 19.2843C5.77819 20.5254 5.47816 21.6161 4.80783 22.6336C4.20016 23.5547 3.62477 24.4971 2.98862 25.397C2.32208 26.3432 2.30689 27.2355 2.97153 28.1913C3.66845 29.1934 4.32169 30.2302 4.97683 31.2631C5.54842 32.1649 5.74971 33.1458 5.64717 34.225C5.53513 35.3967 5.52943 36.5799 5.44967 37.7554C5.38131 38.7768 5.82377 39.4493 6.71058 39.8848C7.75691 40.3974 8.79185 40.939 9.83438 41.4593C10.8275 41.9545 11.57 42.6888 12.0505 43.714C12.5689 44.824 13.1272 45.9128 13.6684 47.0112C14.0558 47.7975 14.6881 48.2272 15.5465 48.2041C16.4921 48.1771 17.4397 48.0981 18.3816 47.9902C19.9729 47.8071 21.4408 48.0287 22.753 49.0597C23.5202 49.6629 24.3728 50.1523 25.1761 50.7093C26.0629 51.3259 26.9345 51.3259 27.8232 50.7151C28.805 50.0406 29.7982 49.3796 30.7875 48.7147C31.4939 48.2388 32.263 47.9189 33.1213 47.9497C34.424 47.9959 35.7286 48.0518 37.0275 48.1674C38.184 48.2696 38.8638 47.9535 39.3993 46.8879C39.9291 45.8376 40.4551 44.7854 40.9526 43.7178C41.4293 42.6926 42.1699 41.9565 43.1649 41.4593C44.2303 40.9274 45.288 40.382 46.3514 39.8502C47.1774 39.4358 47.6142 38.796 47.5572 37.8325C47.487 36.6551 47.4908 35.4718 47.3654 34.3021C47.2363 33.088 47.5155 32.0166 48.1725 31.0203C48.8181 30.0394 49.4505 29.0469 50.1056 28.0737C50.6848 27.2143 50.6753 26.3837 50.0999 25.5242C49.3916 24.4701 48.708 23.3986 48.0225 22.3272C47.5041 21.514 47.2781 20.6179 47.3351 19.6505C47.3996 18.4788 47.4775 17.3014 47.5705 15.8291ZM19.8571 68.6292C19.9198 68.6427 19.9824 68.6543 20.0451 68.6678C20.1628 68.4384 20.2863 68.213 20.3945 67.9798C21.4902 65.6056 22.5859 63.2295 23.6778 60.8515C24.671 58.6932 25.6527 56.5291 26.6573 54.3765C26.8965 53.8639 26.8567 53.6423 26.2281 53.6539C25.4476 53.6674 24.745 53.3687 24.0994 52.937C23.1879 52.328 22.2669 51.7345 21.3763 51.0947C20.7078 50.6148 20.009 50.3894 19.1792 50.453C17.8803 50.5493 16.5757 50.6091 15.273 50.6168C14.7622 50.6206 14.5096 50.8018 14.3026 51.2546C12.6221 54.9469 10.9225 58.6296 9.2324 62.3161C9.06719 62.6745 8.92097 63.0426 8.75576 63.428C9.08049 63.4781 9.24 63.3085 9.4204 63.2122C11.6707 62.0232 13.9114 60.8149 16.1674 59.6355C17.1055 59.1441 17.8594 59.5026 18.1157 60.5355C18.2886 61.235 18.4196 61.9442 18.5715 62.6495C18.9988 64.644 19.4279 66.6366 19.8571 68.6292ZM44.16 63.509C44.1733 63.3587 44.1961 63.3066 44.179 63.2719C42.3123 59.1884 40.4418 55.1088 38.5733 51.0272C38.4669 50.7941 38.3188 50.6418 38.0358 50.6341C36.4008 50.5821 34.7582 50.3932 33.1346 50.4992C31.9041 50.5802 30.8388 51.3086 30.2463 52.4514C29.4639 53.9622 28.8126 55.5424 28.0853 57.0841C27.9182 57.4386 27.8954 57.7374 28.0663 58.1035C29.6196 61.4585 31.1521 64.8232 32.7017 68.1802C32.7814 68.3517 32.7966 68.6215 33.1213 68.6273C33.1802 68.3941 33.2448 68.1648 33.2941 67.9335C33.8107 65.5363 34.3196 63.139 34.8437 60.7436C35.1285 59.4486 35.8255 59.1056 36.9667 59.703C38.4422 60.4757 39.9044 61.2716 41.3761 62.054C42.2914 62.5377 43.2105 63.0118 44.16 63.509Z" fill="white"/>
<path d="M43.3441 26.8237C43.2909 36.0756 36.1698 43.8861 26.5402 43.8899C16.3618 43.8938 9.61286 35.5591 9.65843 26.7639C9.70591 17.4484 16.9504 9.71117 26.4927 9.72659C36.5534 9.742 43.327 17.9687 43.3441 26.8237ZM12.1252 26.8564C12.1347 34.9386 18.5684 41.4425 26.544 41.4367C34.4778 41.431 40.8887 34.8673 40.8698 26.7639C40.8527 18.6451 34.419 12.1701 26.3807 12.1855C18.5133 12.199 12.1157 18.7819 12.1252 26.8564Z" fill="white"/>
<path d="M19.7763 30.1547C19.8143 29.8502 19.6415 29.6594 19.444 29.4706C17.9723 28.0715 16.5158 26.657 15.0308 25.2715C14.5428 24.8167 14.1839 24.3349 14.3927 23.6392C14.5883 22.9879 15.1295 22.8356 15.7296 22.7605C17.752 22.508 19.7687 22.217 21.7911 21.9762C22.262 21.9203 22.4937 21.6967 22.6798 21.2882C23.5248 19.4305 24.3984 17.5863 25.2434 15.7305C25.4998 15.1678 25.8283 14.7207 26.491 14.7188C27.1538 14.7168 27.488 15.1581 27.7443 15.7228C28.5799 17.5574 29.4439 19.3804 30.2756 21.2169C30.4807 21.6717 30.7314 21.928 31.2631 21.9896C33.3102 22.2267 35.3516 22.5215 37.3948 22.7817C37.9569 22.853 38.4203 23.0572 38.5969 23.6334C38.7792 24.2231 38.5627 24.7107 38.126 25.125C36.6505 26.5202 35.1921 27.9328 33.7052 29.3145C33.2855 29.7038 33.183 30.0969 33.2969 30.6577C33.6976 32.6368 34.0394 34.6275 34.4287 36.6085C34.5445 37.202 34.497 37.7185 33.9976 38.1001C33.4944 38.4835 32.9741 38.3776 32.4614 38.0904C30.6346 37.0671 28.8002 36.0554 26.9809 35.0148C26.6258 34.8125 26.3543 34.8163 26.0011 35.0167C24.2445 36.0207 22.4709 36.9939 20.7106 37.9902C20.1447 38.3101 19.5807 38.5471 18.9882 38.0962C18.4261 37.6703 18.4641 37.0941 18.5894 36.462C18.973 34.5292 19.3205 32.5886 19.6813 30.65C19.7155 30.4842 19.7459 30.3204 19.7763 30.1547ZM18.2685 24.9381C19.368 25.9922 20.3023 26.9789 21.3315 27.8499C22.2449 28.6246 22.5222 29.4513 22.1975 30.6365C21.8424 31.9353 21.6809 33.2901 21.4094 34.7624C22.4007 34.2131 23.2457 33.7352 24.0983 33.2708C26.9183 31.7291 26.0846 31.7368 28.8875 33.2669C29.7496 33.7391 30.6099 34.217 31.5878 34.7585C31.2726 33.0646 31.0181 31.5268 30.6896 30.0063C30.5301 29.274 30.739 28.7518 31.2536 28.27C32.2658 27.3238 33.2627 26.3603 34.2578 25.3948C34.3793 25.2772 34.5977 25.1944 34.5141 24.9053C33.0196 24.7126 31.5195 24.5045 30.0136 24.331C29.311 24.2501 28.8305 23.9418 28.5362 23.2712C27.976 21.9954 27.3778 20.737 26.7911 19.4748C26.7227 19.3283 26.6904 19.1106 26.5005 19.1029C26.303 19.0952 26.2726 19.3187 26.2062 19.4632C25.6403 20.6831 25.0554 21.8952 24.5275 23.1324C24.1971 23.9052 23.6787 24.2675 22.8488 24.3484C21.3752 24.4891 19.9092 24.7203 18.2685 24.9381Z" fill="white"/>
</svg>
