<svg width="18" height="20" viewBox="0 0 18 20" fill="none" xmlns="http://www.w3.org/2000/svg">
<path d="M8.96402 20.0068L8.38312 19.5088C7.5823 18.8383 0.589844 12.7993 0.589844 8.38199C0.589844 3.75707 4.3391 0.0078125 8.96402 0.0078125C13.5889 0.0078125 17.3382 3.75707 17.3382 8.38199C17.3382 12.7994 10.3457 18.8383 9.54824 19.5121L8.96402 20.0068ZM8.96402 1.81855C5.34086 1.82266 2.40473 4.75879 2.40062 8.38195C2.40062 11.157 6.70266 15.5902 8.96402 17.6192C11.2254 15.5893 15.5274 11.1537 15.5274 8.38195C15.5233 4.75879 12.5872 1.8227 8.96402 1.81855Z" fill="#292E35"/>
<path d="M8.96398 11.7014C7.1307 11.7014 5.64453 10.2152 5.64453 8.38195C5.64453 6.54867 7.1307 5.0625 8.96398 5.0625C10.7973 5.0625 12.2834 6.54867 12.2834 8.38195C12.2834 10.2152 10.7973 11.7014 8.96398 11.7014ZM8.96398 6.72219C8.04734 6.72219 7.30426 7.46527 7.30426 8.38191C7.30426 9.29855 8.04734 10.0416 8.96398 10.0416C9.88063 10.0416 10.6237 9.29855 10.6237 8.38191C10.6237 7.46527 9.88066 6.72219 8.96398 6.72219Z" fill="#292E35"/>
</svg>
