<svg width="24" height="20" viewBox="0 0 24 20" fill="none" xmlns="http://www.w3.org/2000/svg">
<path d="M19.7274 6.44524C19.6153 6.44524 19.5324 6.44524 19.4494 6.44524C17.4232 6.44524 15.3969 6.44449 13.37 6.44598C12.704 6.44673 12.0971 6.61639 11.5971 7.08278C11.0993 7.54692 10.8497 8.12018 10.837 8.79584C10.8295 9.18749 10.8392 9.57913 10.8333 9.97003C10.8228 10.6801 10.2862 11.2294 9.60302 11.2361C8.92437 11.2429 8.38474 10.6898 8.39296 9.96629C8.40267 9.14937 8.32868 8.33095 8.55216 7.52151C9.10823 5.50649 11.0044 4.01989 13.0987 4.00793C15.1996 3.99597 17.3006 4.00494 19.4023 4.00344C19.5017 4.00344 19.6056 4.02886 19.705 3.97654C19.7013 3.86592 19.6071 3.82182 19.5458 3.75979C19.146 3.35469 18.7364 2.95931 18.3403 2.55048C17.8313 2.02579 17.8111 1.31276 18.2797 0.817231C18.7618 0.308244 19.4987 0.269379 20.0316 0.787335C21.2424 1.96376 22.4376 3.15738 23.6185 4.3637C24.1379 4.89436 24.1222 5.5902 23.6028 6.11563C22.4226 7.30999 21.2312 8.49389 20.0376 9.6748C19.6811 10.0276 19.2401 10.118 18.7685 9.95882C18.2909 9.79812 18.0219 9.44161 17.9561 8.94757C17.9008 8.52977 18.066 8.18147 18.3559 7.88849C18.7431 7.49759 19.1347 7.11043 19.5227 6.71954C19.5922 6.65152 19.6841 6.59547 19.7274 6.44524Z" fill="#000094"/>
<path d="M4.26184 16.079C4.72449 16.5379 5.18938 16.9938 5.64904 17.4557C5.98089 17.7891 6.12289 18.1845 6.00779 18.6538C5.80674 19.4767 4.83959 19.8504 4.13927 19.3706C4.00922 19.2817 3.89187 19.1718 3.77976 19.0604C2.69527 17.9812 1.61227 16.9004 0.530018 15.8189C-0.180022 15.1081 -0.176285 14.4556 0.538987 13.7411C1.64815 12.6334 2.76029 11.5295 3.86497 10.4174C4.22372 10.0556 4.64003 9.89866 5.13556 10.0242C5.99359 10.241 6.34114 11.2784 5.76414 11.9623C5.38071 12.4174 4.93675 12.8218 4.51372 13.2426C4.42926 13.327 4.31491 13.3823 4.22671 13.4631C4.32911 13.6021 4.41207 13.5662 4.47934 13.5662C6.54294 13.5685 8.60654 13.5744 10.6709 13.5655C12.1642 13.5595 13.156 12.5505 13.159 11.0579C13.1598 10.7133 13.1545 10.368 13.1613 10.0235C13.1747 9.32017 13.7338 8.76484 14.4102 8.7768C15.0866 8.78876 15.6098 9.32764 15.6008 10.0369C15.5911 10.7896 15.6673 11.5445 15.4909 12.2919C14.9834 14.4422 13.0581 15.9953 10.8473 16.005C8.76499 16.014 6.6827 16.0073 4.59967 16.0073C4.49877 16.0073 4.39787 16.0073 4.29697 16.0073C4.28501 16.0319 4.2738 16.0551 4.26184 16.079Z" fill="#000094"/>
</svg>
