<svg width="28" height="27" viewBox="0 0 28 27" fill="none" xmlns="http://www.w3.org/2000/svg">
<path fill-rule="evenodd" clip-rule="evenodd" d="M0.708984 21.958C0.708984 23.2399 1.21821 24.4693 2.12464 25.3757C3.03106 26.2821 4.26044 26.7913 5.54232 26.7913H22.459C23.7409 26.7913 24.9702 26.2821 25.8767 25.3757C26.7831 24.4693 27.2923 23.2399 27.2923 21.958V5.04134C27.2923 3.75946 26.7831 2.53008 25.8767 1.62366C24.9702 0.717233 23.7409 0.208008 22.459 0.208008H5.54232C4.26044 0.208008 3.03106 0.717233 2.12464 1.62366C1.21821 2.53008 0.708984 3.75946 0.708984 5.04134V21.958Z" fill="#000094"/>
<path d="M14.0016 10.0828L12.293 8.37304L7.16602 13.5L12.293 18.627L14.0016 16.9184L11.7927 14.7083L20.8999 14.7083L20.8999 12.2917L11.7927 12.2917L14.0016 10.0828Z" fill="white"/>
</svg>
