<svg width="50" height="49" viewBox="0 0 50 49" fill="none" xmlns="http://www.w3.org/2000/svg">
<path d="M0.500602 40.7722C0.941434 39.5851 1.4896 38.4632 2.33676 37.4998C3.20565 36.5121 4.23425 35.7518 5.43408 35.2305C5.8008 35.0708 5.81613 34.9788 5.53758 34.6925C4.21509 33.3343 3.77298 31.7128 4.32753 29.8983C4.87953 28.0903 6.13941 26.9697 7.98835 26.557C10.7151 25.9475 13.4955 28.0111 13.7383 30.7762C13.875 32.3402 13.3895 33.6614 12.2919 34.7641C12.1002 34.957 12.0363 35.049 12.3481 35.1768C13.5467 35.6688 14.5765 36.4099 15.4365 37.3771C15.6435 37.6097 15.7623 37.6442 15.9744 37.3707C17.3071 35.656 18.9951 34.4127 21.0382 33.669C21.4599 33.5157 21.336 33.4071 21.083 33.1924C17.7045 30.32 18.1083 25.2817 21.9378 23.0444C23.9554 21.8663 26.0675 21.8867 28.0788 23.0725C30.1513 24.294 31.194 26.1634 31.148 28.5899C31.1122 30.5129 30.2714 32.0476 28.8071 33.2614C28.7355 33.3215 28.6704 33.3879 28.6052 33.4467C28.6665 33.6128 28.8109 33.6179 28.9234 33.6588C30.9499 34.4038 32.6251 35.6355 33.9578 37.326C34.1916 37.6225 34.3117 37.6301 34.5609 37.349C35.3953 36.4022 36.406 35.6841 37.57 35.1985C37.9048 35.0593 37.8908 34.9788 37.6505 34.7347C36.3408 33.3956 35.877 31.7894 36.3855 29.9903C36.9043 28.1542 38.1578 27.0055 40.0272 26.571C42.0307 26.1046 44.1774 27.0681 45.2111 28.88C46.2614 30.7199 46.0187 32.9969 44.6093 34.52C44.5658 34.5673 44.5262 34.6184 44.4764 34.6568C44.1467 34.9123 44.1403 35.0554 44.5684 35.2484C46.8952 36.3 48.4886 38.0441 49.3268 40.4591C49.9823 42.3489 48.7595 44.0509 46.7547 44.0535C43.6778 44.0573 40.6022 44.0548 37.5253 44.0548C36.3855 44.0548 36.3855 44.0548 36.3766 45.1805C36.3677 46.4302 35.9345 47.4805 34.9417 48.2753C34.5098 48.6215 33.9974 48.7966 33.4952 48.9972C27.8206 48.9972 22.1448 48.9972 16.4702 48.9972C15.8773 48.7672 15.2908 48.5334 14.8078 48.0913C13.7894 47.161 13.5185 45.9702 13.5965 44.6655C13.6259 44.1838 13.4674 44.0407 12.9806 44.0433C9.70439 44.0637 6.42691 44.0497 3.14942 44.0548C1.96876 44.0573 1.16249 43.4951 0.659046 42.455C0.604102 42.34 0.551713 42.225 0.498047 42.11C0.500602 41.6653 0.500602 41.2194 0.500602 40.7722ZM24.961 47.4332C27.4782 47.4332 29.9954 47.4396 32.5126 47.4306C33.6831 47.4268 34.6043 46.724 34.6861 45.6916C34.7564 44.8061 34.796 43.8951 34.6746 43.0198C33.9194 37.6007 29.0217 34.0792 23.963 34.6606C20.7788 35.026 18.3383 36.5721 16.6274 39.267C15.5131 41.0226 15.2065 42.961 15.2244 45.0233C15.2384 46.5745 16.207 47.4651 17.6483 47.4447C20.085 47.4089 22.523 47.4345 24.961 47.4332ZM24.9674 32.9267C27.5038 32.9343 29.5444 30.9154 29.5444 28.3982C29.5444 25.9206 27.491 23.8698 25.0044 23.8673C22.4872 23.8634 20.4211 25.9142 20.4275 28.4085C20.4338 30.9065 22.4566 32.919 24.9674 32.9267ZM41.7241 42.4026C43.398 42.4026 45.0706 42.409 46.7444 42.4001C47.6402 42.3949 48.0784 41.8187 47.7794 40.9843C46.8416 38.3674 45.0028 36.7255 42.2646 36.2489C39.4893 35.7659 37.1905 36.7153 35.394 38.8836C35.2177 39.097 35.2087 39.2836 35.3314 39.534C35.7071 40.293 35.9856 41.0929 36.1415 41.926C36.2118 42.2991 36.383 42.4154 36.7535 42.4116C38.4083 42.3949 40.0668 42.4039 41.7241 42.4026ZM8.1634 42.4039C9.78873 42.4039 11.4153 42.3847 13.0394 42.4154C13.539 42.4243 13.7856 42.3042 13.8712 41.774C13.9926 41.0175 14.2571 40.2905 14.6098 39.6107C14.7899 39.2631 14.7158 39.0318 14.4833 38.761C12.7749 36.7842 10.6346 35.854 8.02796 36.2067C5.16191 36.5926 3.25931 38.2179 2.20771 40.9C1.89721 41.6909 2.36232 42.4499 3.28742 42.4179C4.91147 42.3643 6.53807 42.4039 8.1634 42.4039ZM8.95562 34.4574C10.7343 34.4523 12.1398 33.0455 12.1398 31.2719C12.1385 29.5342 10.6768 28.0826 8.92879 28.0839C7.16929 28.0852 5.7663 29.5137 5.77013 31.2975C5.77397 33.0953 7.15268 34.4638 8.95562 34.4574ZM44.2017 31.3026C44.2068 29.5176 42.8051 28.089 41.0469 28.0839C39.3001 28.0801 37.8358 29.5303 37.8333 31.2681C37.8294 33.0417 39.235 34.451 41.0124 34.4574C42.814 34.4651 44.1966 33.0966 44.2017 31.3026Z" fill="#EC971F"/>
<path d="M0.5 11.4095C0.829665 10.8856 1.31011 10.7131 1.91833 10.7003C3.01593 10.6761 4.11098 10.5789 5.20859 10.5355C5.54209 10.5227 5.63153 10.3132 5.72353 10.0678C6.10559 9.05456 6.49786 8.04512 6.86969 7.02802C7.07158 6.47474 7.38591 6.06841 8.01713 6.0403C8.56274 6.01602 8.94607 6.34952 9.20674 7.03568C9.59135 8.04768 9.98362 9.05712 10.3516 10.0768C10.4641 10.3886 10.6238 10.5291 10.9688 10.5406C12.1137 10.5802 13.2573 10.6556 14.4022 10.7144C15.0142 10.7463 15.4052 11.0134 15.5675 11.5283C15.74 12.0778 15.5113 12.4956 15.0998 12.8304C14.2603 13.514 13.4272 14.2091 12.5583 14.8544C12.1571 15.1521 12.0843 15.4409 12.2274 15.906C12.5404 16.9244 12.8011 17.9606 13.072 18.9918C13.2356 19.6128 13.1014 20.0651 12.6836 20.359C12.1993 20.6989 11.7303 20.6197 11.2627 20.3092C10.3606 19.7099 9.43801 19.1387 8.55252 18.5165C8.15896 18.2405 7.87658 18.2737 7.4958 18.5407C6.58219 19.1796 5.64687 19.7891 4.69493 20.3692C3.90398 20.8522 2.98782 20.3948 2.91627 19.5208C2.89838 19.2946 2.96738 19.08 3.02615 18.8653C3.31621 17.806 3.59476 16.7429 3.89887 15.6875C3.98576 15.3859 3.9436 15.1981 3.68165 14.9975C2.82427 14.3369 1.98988 13.6443 1.144 12.9671C0.894832 12.7665 0.664833 12.5493 0.5 12.2707C0.5 11.9832 0.5 11.697 0.5 11.4095ZM4.92492 18.1549C4.95559 18.1779 4.98626 18.2009 5.01692 18.2239C5.5702 17.8597 6.16564 17.5454 6.66908 17.1211C7.60058 16.334 8.45669 16.3264 9.39329 17.1135C9.90568 17.5441 10.5139 17.861 11.1937 18.3031C10.9228 17.2987 10.7068 16.4388 10.4564 15.5878C10.2724 14.9591 10.4206 14.4736 10.942 14.0737C11.5617 13.5983 12.1635 13.1013 12.7679 12.6093C12.8561 12.5378 13.0081 12.4969 12.9634 12.2094C12.1367 12.1864 11.3125 12.1864 10.4871 12.1864C9.73062 12.1864 9.22463 11.8631 8.98952 11.1105C8.80935 10.5342 8.56913 9.97584 8.3468 9.41362C8.25735 9.18873 8.22413 8.93062 7.99541 8.70062C7.6913 9.49539 7.40508 10.2339 7.12397 10.9751C6.75214 11.9577 6.48508 12.1506 5.43603 12.1928C4.64637 12.2247 3.85543 12.2643 3.04277 12.3027C3.12454 12.5199 3.29065 12.5953 3.42099 12.7013C3.97682 13.1537 4.53137 13.6085 5.09998 14.0443C5.63025 14.4519 5.82064 14.9528 5.60981 15.598C5.54081 15.8101 5.4897 16.0274 5.4322 16.242C5.26353 16.8771 5.09487 17.516 4.92492 18.1549Z" fill="#EC971F"/>
<path d="M49.5021 11.8808C49.5251 12.2769 49.3028 12.5772 48.9936 12.8276C48.1017 13.5495 47.2162 14.2804 46.309 14.9819C46.0355 15.1928 45.9831 15.3883 46.0777 15.7103C46.3895 16.781 46.6744 17.8595 46.9657 18.9354C47.1408 19.5845 47.0168 20.0457 46.5926 20.3537C46.1403 20.6821 45.7225 20.6706 45.1308 20.2885C44.2198 19.7007 43.3062 19.1181 42.4143 18.5022C42.0795 18.2709 41.8329 18.2428 41.4828 18.4869C40.5807 19.1142 39.6505 19.7033 38.7241 20.2949C38.1248 20.6782 37.707 20.6885 37.2662 20.3435C36.8023 19.9806 36.7474 19.5052 36.8994 18.966C37.1933 17.9234 37.4553 16.8718 37.7645 15.8342C37.8872 15.424 37.8156 15.1634 37.4655 14.8989C36.6132 14.2562 35.7916 13.5725 34.9598 12.903C34.4231 12.4724 34.2417 12.0316 34.3976 11.546C34.5752 10.9889 34.9789 10.7423 35.6983 10.7103C36.8279 10.6592 37.9562 10.5813 39.0857 10.5366C39.409 10.5238 39.5176 10.3462 39.6134 10.0881C39.9955 9.0569 40.389 8.03085 40.7775 7.00224C40.8912 6.70069 41.0292 6.41575 41.3116 6.22919C41.9543 5.80497 42.7299 6.08991 43.043 6.88597C43.4506 7.92352 43.8492 8.96618 44.2236 10.0165C44.354 10.3832 44.5405 10.5366 44.9456 10.5468C46.0751 10.5749 47.2034 10.6541 48.3329 10.718C49.0421 10.7576 49.4995 11.2048 49.5021 11.8808ZM36.9582 12.3254C37.0387 12.5197 37.1857 12.5925 37.3045 12.6883C37.8987 13.1688 38.4941 13.6492 39.0908 14.1258C39.5368 14.4823 39.6926 14.9283 39.538 15.4815C39.4345 15.8495 39.3387 16.2188 39.2403 16.5881C39.0998 17.1145 38.9579 17.641 38.7867 18.2811C39.0448 18.1252 39.1943 18.0409 39.3387 17.9464C39.952 17.5464 40.5692 17.1503 41.1749 16.7389C41.7 16.3824 42.2035 16.3913 42.7261 16.7504C43.3688 17.1925 44.0256 17.6141 44.6811 18.0384C44.7756 18.0997 44.86 18.2364 45.0069 18.1495C45.0133 18.1278 45.0248 18.1112 45.0222 18.0984C44.8037 17.2679 44.6006 16.4335 44.3591 15.6093C44.1623 14.9385 44.3437 14.4389 44.8983 14.0236C45.4963 13.5751 46.07 13.0921 46.6488 12.6168C46.7459 12.5376 46.8967 12.4852 46.9031 12.3037C46.2796 12.2692 45.6777 12.2181 45.0733 12.2053C43.356 12.167 43.2857 12.1248 42.6788 10.5417C42.4488 9.94112 42.2188 9.34184 41.9824 8.7234C41.9019 8.78346 41.8649 8.79624 41.8546 8.82051C41.5825 9.5169 41.3141 10.2158 41.0445 10.9135C40.6216 12.0086 40.4005 12.1708 39.2109 12.19C38.4685 12.2015 37.73 12.2513 36.9582 12.3254Z" fill="#EC971F"/>
<path d="M19.8981 19.1959C20.0093 18.7768 20.1652 18.1775 20.3262 17.5783C20.4884 16.979 20.6315 16.372 20.827 15.7843C20.9612 15.3818 20.8436 15.1505 20.5191 14.9026C19.6323 14.2267 18.7685 13.5188 17.9073 12.8096C17.4294 12.4161 17.2991 11.9842 17.4703 11.5025C17.6531 10.9913 18.0351 10.7473 18.5603 10.7179C19.7205 10.6527 20.8807 10.5812 22.0422 10.5403C22.3821 10.5288 22.5546 10.4074 22.6696 10.0905C23.044 9.0568 23.4401 8.03202 23.8349 7.00597C24.0905 6.34153 24.47 6.01953 24.9964 6.03998C25.6302 6.06426 25.9458 6.47187 26.149 7.02258C26.5297 8.05375 26.9348 9.07596 27.3117 10.1084C27.4203 10.4036 27.5801 10.5275 27.9033 10.539C29.0648 10.5812 30.225 10.654 31.3853 10.7153C31.9092 10.7435 32.3002 10.9671 32.4931 11.4756C32.672 11.9458 32.5672 12.3879 32.1225 12.7585C31.2294 13.5034 30.3247 14.2369 29.4022 14.9435C29.0968 15.1773 29.038 15.4009 29.1402 15.7549C29.4469 16.8103 29.7216 17.8747 30.0129 18.934C30.1637 19.4821 30.1305 19.983 29.6398 20.3561C29.1926 20.696 28.7594 20.6615 28.141 20.2565C27.2466 19.6725 26.3393 19.1078 25.4679 18.4931C25.1012 18.235 24.8431 18.2657 24.493 18.5072C23.5615 19.1486 22.6057 19.7543 21.6563 20.3715C21.2615 20.6283 20.8488 20.6628 20.4373 20.4213C20.0463 20.1939 19.8598 19.8437 19.8981 19.1959ZM28.141 18.2938C27.8752 17.3074 27.6503 16.4525 27.4127 15.6015C27.2402 14.9844 27.3667 14.4797 27.8893 14.0746C28.5064 13.5967 29.1083 13.1009 29.7127 12.6064C29.7983 12.5362 29.9542 12.494 29.8903 12.2921C29.1338 12.2576 28.3723 12.218 27.6095 12.1912C26.5438 12.1528 26.264 11.9522 25.887 10.9492C25.6097 10.2106 25.3248 9.47335 24.9887 8.59169C24.6591 9.45418 24.378 10.1736 24.1071 10.8955C23.702 11.9765 23.4465 12.1694 22.2773 12.1886C21.5349 12.2014 20.7964 12.2487 19.9262 12.3356C20.6418 12.9118 21.2653 13.4178 21.8927 13.9213C22.6721 14.5461 22.7693 14.8515 22.5009 15.8252C22.2875 16.6008 22.078 17.3789 21.8288 18.2976C22.6083 17.7929 23.2982 17.4019 23.9244 16.9266C24.6565 16.3695 25.3095 16.3631 26.0442 16.9215C26.6716 17.3968 27.3628 17.7891 28.141 18.2938Z" fill="#EC971F"/>
<path d="M17.4982 4.01206C17.6503 4.0044 17.8522 4.12578 18.0336 4.28934C19.0047 5.16334 19.9809 6.03094 20.9444 6.91261C21.4031 7.33299 21.4529 7.80193 21.113 8.16866C20.7834 8.52643 20.3259 8.53538 19.8813 8.1431C18.8769 7.25888 17.8854 6.36061 16.8977 5.4585C16.6217 5.20678 16.4862 4.88989 16.6472 4.51167C16.7878 4.18456 17.0357 4.01717 17.4982 4.01206Z" fill="#EC971F"/>
<path d="M29.4583 8.43787C29.1466 8.40848 28.8782 8.28582 28.7313 7.98426C28.5665 7.64693 28.6176 7.3211 28.8808 7.06043C29.2079 6.7346 29.558 6.43305 29.9005 6.12255C30.5623 5.52455 31.223 4.92528 31.8899 4.33239C32.3359 3.935 32.8393 3.90945 33.1639 4.25445C33.5229 4.63778 33.4578 5.11567 32.9824 5.54627C32.0727 6.36916 31.1616 7.18949 30.2493 8.00982C30.0218 8.21298 29.7944 8.41615 29.4583 8.43787Z" fill="#EC971F"/>
<path d="M25.783 2.19846C25.783 2.6444 25.7907 3.09035 25.7805 3.53629C25.7677 4.06657 25.4329 4.42306 24.9742 4.41412C24.5308 4.40645 24.1986 4.06273 24.1922 3.56057C24.1807 2.65207 24.1807 1.74485 24.1922 0.836358C24.1986 0.320138 24.5091 0.00452834 24.9729 -0.00186052C25.4559 -0.00824938 25.769 0.316305 25.7818 0.859358C25.7907 1.30658 25.783 1.75252 25.783 2.19846Z" fill="#EC971F"/>
</svg>
