<svg width="42" height="49" viewBox="0 0 42 49" fill="none" xmlns="http://www.w3.org/2000/svg">
<path d="M22.1631 -3.90626e-05C23.8542 0.615332 24.5217 1.52355 24.555 3.31703C24.5617 3.7008 24.6978 3.80512 25.0606 3.8032C27.2658 3.79076 29.4721 3.79555 31.6773 3.79746C33.2722 3.79938 34.3025 4.79182 34.2615 6.38432C34.2453 7.02266 34.4139 7.39016 35.0261 7.59687C35.4594 7.7433 35.8488 8.01031 36.2154 8.29168C36.4192 8.44768 36.5687 8.43619 36.7429 8.24191C36.9762 7.9816 37.2266 7.73469 37.4847 7.49926C38.4169 6.64559 39.8004 6.65133 40.7316 7.50404C41.6314 8.32805 41.7609 9.72053 41.0239 10.7187C40.8925 10.8967 40.7345 11.0575 40.5774 11.2145C37.897 13.9114 35.2156 16.6064 32.5333 19.3014C31.205 20.6355 29.8891 20.6364 28.5646 19.3062C27.3296 18.0658 26.0813 16.8399 24.8663 15.5804C23.5266 14.1899 24.1236 11.9906 25.9595 11.5236C26.8212 11.3044 27.5972 11.5178 28.238 12.1495C28.9179 12.8194 29.5939 13.4931 30.2557 14.1812C30.4709 14.4052 30.6128 14.409 30.8337 14.1841C32.2505 12.7438 33.6721 11.3082 35.1099 9.88896C35.447 9.55688 35.2042 9.45447 34.9671 9.30326C31.9782 7.40834 27.8771 7.95193 25.4624 10.5637C21.4299 14.9239 23.5742 21.9361 29.3483 23.2711C33.7683 24.2932 38.1588 21.0862 38.5321 16.5643C38.5425 16.437 38.5625 16.3106 38.5825 16.1853C38.6768 15.6024 38.9777 15.3048 39.4233 15.3517C39.8737 15.3986 40.1079 15.7288 40.0936 16.3346C40.066 17.5328 39.7613 18.6678 39.2462 19.7416C38.2959 21.7246 36.8324 23.2061 34.8376 24.1229C34.4148 24.3172 34.2653 24.5411 34.2663 25.0139C34.2825 32.095 34.2777 39.176 34.2777 46.2571C34.2777 47.7348 33.8054 48.4401 32.4467 49.0009C22.385 49.0009 12.3242 49.0009 2.2625 49.0009C0.999908 48.4966 0.497156 47.5749 0.500012 46.2016C0.525721 32.9151 0.515247 19.6277 0.516199 6.34125C0.516199 5.04352 1.21034 4.11902 2.37867 3.85297C2.53197 3.81852 2.69289 3.80129 2.85 3.80033C4.40491 3.7965 5.96078 3.80033 7.51569 3.79555C7.87752 3.79459 8.17841 3.89029 8.33742 4.24344C8.52881 4.6674 8.31552 5.15262 7.86228 5.2732C7.62043 5.33732 7.36048 5.34881 7.10816 5.35072C5.79129 5.35838 4.47347 5.35072 3.1566 5.35551C2.31773 5.35934 2.01589 5.66271 2.01398 6.51639C2.00922 9.30805 2.01208 12.0988 2.01208 14.8904C2.01208 25.2579 2.01208 35.6264 2.01303 45.9939C2.01303 46.2016 2.00351 46.4102 2.02731 46.615C2.09016 47.1596 2.372 47.4419 2.91284 47.5137C3.069 47.5347 3.22992 47.529 3.38798 47.529C12.7194 47.53 22.0507 47.53 31.3821 47.53C31.4935 47.53 31.6049 47.5328 31.7154 47.5271C32.4124 47.4869 32.7142 47.1768 32.7152 46.4677C32.719 43.1822 32.7171 39.8957 32.7171 36.6102C32.7171 32.8941 32.7171 29.177 32.7171 25.4608C32.7171 24.8521 32.7142 24.8388 32.1172 24.9201C27.9781 25.4828 23.917 22.9917 22.4183 19.0162C20.4197 13.7171 23.8151 7.72416 29.3759 6.76904C30.3528 6.60156 31.3307 6.57859 32.3086 6.73172C32.6066 6.77861 32.7095 6.68674 32.7199 6.39102C32.7438 5.71439 32.4533 5.36221 31.7744 5.35934C29.5206 5.34881 27.2678 5.35742 25.0139 5.35072C24.695 5.34977 24.5502 5.46557 24.5588 5.79957C24.5674 6.14793 24.5883 6.49916 24.4912 6.8456C24.2741 7.61793 23.6609 8.15004 22.8668 8.15291C19.2171 8.16439 15.5664 8.16726 11.9167 8.15195C10.9493 8.14812 10.2456 7.40738 10.2332 6.43408C10.2189 5.31818 10.2266 4.20133 10.2304 3.08447C10.2351 1.68051 10.9683 0.625859 12.2861 0.112891C12.3747 0.0784375 12.4594 0.0363281 12.5461 -0.00195312C15.7521 -3.90626e-05 18.9581 -3.90626e-05 22.1631 -3.90626e-05ZM17.3546 6.59391C19.0361 6.59391 20.7186 6.58242 22.4002 6.60156C22.843 6.60635 23.0248 6.48576 23.0096 6.01107C22.9782 5.07127 23.0039 4.12955 22.9991 3.18879C22.9944 2.12074 22.4345 1.49102 21.3757 1.48049C18.7105 1.45561 16.0444 1.45752 13.3783 1.47857C12.3756 1.48623 11.7929 2.11117 11.7805 3.1084C11.7681 4.08074 11.7929 5.05404 11.77 6.02639C11.7596 6.47045 11.9271 6.60443 12.3556 6.60061C14.0219 6.58242 15.6883 6.59391 17.3546 6.59391ZM26.5708 13.0165C26.1651 13.0156 25.8785 13.1735 25.7538 13.5266C25.6062 13.9477 25.7576 14.2932 26.069 14.6033C27.2754 15.8034 28.4713 17.0141 29.672 18.2199C30.3804 18.932 30.7089 18.932 31.4193 18.218C34.1006 15.524 36.781 12.8299 39.4614 10.1349C39.5623 10.0335 39.6661 9.93299 39.7537 9.82102C39.9965 9.51285 40.0156 9.17693 39.8289 8.83814C39.6452 8.5051 39.3414 8.41131 38.9796 8.43906C38.6635 8.46395 38.4692 8.67258 38.2674 8.87643C35.945 11.2097 33.6245 13.5439 31.3012 15.8762C30.7099 16.4705 30.3776 16.4666 29.7787 15.8666C28.9579 15.0454 28.139 14.2234 27.323 13.3965C27.1021 13.1745 26.8688 12.9974 26.5708 13.0165Z" fill="#EC971F"/>
<path d="M6.65541 40.8085C5.01004 40.8123 3.68841 39.5146 3.68555 37.8905C3.68269 36.2903 5.03289 34.9237 6.62589 34.9141C8.21699 34.9045 9.59098 36.2683 9.59479 37.8608C9.5986 39.4906 8.28745 40.8046 6.65541 40.8085ZM6.62398 36.4846C5.84891 36.4913 5.23666 37.1115 5.24332 37.8828C5.25094 38.6408 5.88985 39.2897 6.63446 39.2954C7.3924 39.3011 8.05226 38.6226 8.04083 37.8493C8.03036 37.078 7.40668 36.4779 6.62398 36.4846Z" fill="#EC971F"/>
<path d="M6.66016 17.3867C8.27887 17.3915 9.61098 18.7342 9.59479 20.3449C9.5786 21.9499 8.22269 23.2887 6.62112 23.2801C5.02527 23.2715 3.6846 21.9135 3.68555 20.3057C3.6865 18.7007 5.03098 17.3819 6.66016 17.3867ZM6.62017 21.7116C7.40953 21.7183 8.02559 21.1306 8.04083 20.3574C8.05606 19.5793 7.40572 18.9103 6.63636 18.9122C5.88699 18.9142 5.24903 19.5573 5.24332 20.3172C5.2376 21.0981 5.83748 21.7049 6.62017 21.7116Z" fill="#EC971F"/>
<path d="M6.6222 32.0916C5.01492 32.0878 3.67044 30.7307 3.68568 29.1306C3.70186 27.519 5.0473 26.1906 6.65648 26.1973C8.2552 26.204 9.61491 27.5783 9.59301 29.166C9.57206 30.7843 8.23996 32.0955 6.6222 32.0916ZM6.63839 30.5307C7.42204 30.5317 8.03334 29.9355 8.04096 29.1622C8.04857 28.3898 7.44299 27.7735 6.666 27.7649C5.8557 27.7563 5.23773 28.3602 5.24249 29.1564C5.24725 29.9335 5.85284 30.5298 6.63839 30.5307Z" fill="#EC971F"/>
<path d="M17.1617 28.2572C15.3221 28.2572 13.4825 28.2591 11.6438 28.2553C11.4553 28.2553 11.2582 28.2534 11.0801 28.2017C10.7402 28.1021 10.5478 27.8466 10.5412 27.4944C10.5345 27.1413 10.7288 26.8972 11.0573 26.7671C11.2544 26.6886 11.461 26.6915 11.6667 26.6915C15.3297 26.6915 18.9927 26.6915 22.6558 26.6915C22.7348 26.6915 22.8148 26.6905 22.8938 26.6953C23.4385 26.7317 23.7908 27.0475 23.7889 27.4954C23.787 27.9395 23.4271 28.2524 22.871 28.2543C20.9676 28.261 19.0651 28.2562 17.1617 28.2572Z" fill="#EC971F"/>
<path d="M17.1656 40.3197C15.326 40.3197 13.4873 40.3206 11.6477 40.3177C11.4744 40.3177 11.2944 40.3225 11.1288 40.2814C10.7879 40.1962 10.5698 39.9608 10.547 39.6086C10.5232 39.2382 10.7069 38.9693 11.0573 38.8305C11.2687 38.7463 11.4925 38.752 11.7144 38.752C15.345 38.752 18.9757 38.752 22.6064 38.753C22.7492 38.753 22.893 38.7511 23.0329 38.7721C23.5062 38.843 23.8166 39.1923 23.7861 39.6048C23.7556 40.0048 23.4357 40.3043 22.9682 40.313C22.0646 40.3292 21.1609 40.3206 20.2573 40.3206C19.2261 40.3197 18.1959 40.3197 17.1656 40.3197Z" fill="#EC971F"/>
<path d="M15.6412 19.5445C14.3082 19.5445 12.9751 19.5455 11.6421 19.5426C11.4688 19.5426 11.2888 19.5436 11.1231 19.5005C10.7604 19.4057 10.5509 19.1502 10.5414 18.776C10.5318 18.42 10.7261 18.1807 11.0584 18.0515C11.2564 17.974 11.4621 17.9769 11.6687 17.9769C14.3348 17.9769 17.001 17.9769 19.6671 17.9769C19.7937 17.9769 19.9222 17.9731 20.047 17.9913C20.4974 18.0573 20.7773 18.3798 20.7621 18.8009C20.7478 19.1952 20.464 19.4967 20.0203 19.5302C19.6414 19.5589 19.2595 19.5436 18.8787 19.5436C17.7998 19.5455 16.721 19.5445 15.6412 19.5445Z" fill="#EC971F"/>
<path d="M15.6624 22.8865C14.3456 22.8865 13.0287 22.8893 11.7118 22.8836C11.5081 22.8826 11.2967 22.8711 11.1015 22.8185C10.7387 22.7209 10.5311 22.4606 10.5435 22.0816C10.5568 21.6844 10.7901 21.4327 11.1748 21.3475C11.3271 21.3141 11.49 21.3198 11.648 21.3198C14.3141 21.3179 16.9793 21.3179 19.6454 21.3198C19.8187 21.3198 19.9996 21.3141 20.1653 21.3562C20.5214 21.4471 20.7537 21.6749 20.7614 22.0644C20.769 22.4654 20.57 22.7352 20.1796 22.83C19.9977 22.874 19.8035 22.8836 19.614 22.8845C18.2962 22.8884 16.9793 22.8865 15.6624 22.8865Z" fill="#EC971F"/>
<path d="M15.643 36.9726C14.2481 36.9726 12.8531 36.9688 11.4582 36.9745C11.0116 36.9765 10.6802 36.8205 10.5584 36.363C10.4603 35.9945 10.7117 35.5849 11.1087 35.4873C11.3363 35.4308 11.5791 35.4203 11.8152 35.4194C14.3671 35.4146 16.9199 35.4155 19.4717 35.4184C19.6926 35.4184 19.9164 35.4309 20.1335 35.472C20.5496 35.5505 20.7657 35.8175 20.7581 36.2453C20.7515 36.6444 20.4515 36.9544 20.0173 36.964C19.1299 36.9832 18.2425 36.9726 17.3541 36.9736C16.7847 36.9736 16.2134 36.9726 15.643 36.9726Z" fill="#EC971F"/>
<path d="M14.2213 31.6017C13.3501 31.6017 12.4798 31.6008 11.6085 31.6017C11.4019 31.6017 11.1962 31.596 11.0029 31.5108C10.6944 31.3749 10.5335 31.1299 10.5392 30.7988C10.5449 30.4887 10.702 30.2552 10.9915 30.127C11.1686 30.0485 11.3571 30.0312 11.5485 30.0312C13.3377 30.0322 15.1268 30.0322 16.916 30.0312C16.9474 30.0312 16.9798 30.0313 17.0112 30.0322C17.5768 30.059 17.9024 30.3423 17.9053 30.8103C17.9081 31.2811 17.5844 31.5855 17.0236 31.597C16.3113 31.6113 15.5982 31.6017 14.8859 31.6027C14.665 31.6017 14.4432 31.6017 14.2213 31.6017Z" fill="#EC971F"/>
<path d="M7.50821 12.0955C6.74837 12.0955 5.98758 12.1022 5.22774 12.0935C4.70118 12.0878 4.36125 11.7882 4.35554 11.3509C4.34983 10.9154 4.69547 10.5948 5.2106 10.5929C6.74647 10.5862 8.28329 10.5862 9.81916 10.5929C10.3724 10.5948 10.6685 10.8647 10.6733 11.3337C10.678 11.8036 10.3809 12.0849 9.8363 12.0926C9.06027 12.1031 8.28424 12.0955 7.50821 12.0955Z" fill="#EC971F"/>
</svg>
