<svg width="51" height="50" viewBox="0 0 51 50" fill="none" xmlns="http://www.w3.org/2000/svg">
<g clip-path="url(#clip0_163_61840)">
<path d="M0.5 10.6696C0.827572 8.80071 1.62817 7.18115 3.05702 5.90994C4.50787 4.61917 6.2044 3.92368 8.15884 3.90412C8.84209 3.89679 9.52535 3.88579 10.2074 3.90779C10.5802 3.92001 10.7427 3.81245 10.7195 3.41397C10.6902 2.9116 10.7036 2.40556 10.7171 1.90197C10.7476 0.817777 11.624 -0.00728538 12.7228 4.85109e-05C13.7899 0.0073824 14.6504 0.836112 14.6797 1.89953C14.6944 2.41901 14.6944 2.94094 14.6809 3.46042C14.6736 3.75989 14.7567 3.90534 15.0904 3.90534C17.7244 3.89679 20.3597 3.89679 22.9937 3.90534C23.3286 3.90657 23.4105 3.75867 23.4019 3.46042C23.3885 2.95683 23.3909 2.45201 23.4019 1.94842C23.4252 0.828778 24.2918 -0.00728538 25.4102 0.00127083C26.498 0.00860471 27.345 0.849557 27.367 1.95208C27.3768 2.45568 27.3805 2.96049 27.367 3.46409C27.3585 3.766 27.4477 3.90779 27.7789 3.90657C30.446 3.89801 33.113 3.89923 35.78 3.90534C36.0697 3.90657 36.1932 3.80511 36.1858 3.50809C36.1724 2.98861 36.176 2.46668 36.1858 1.9472C36.209 0.827555 37.0769 -0.00728538 38.1965 0.00127083C39.2831 0.00982703 40.1277 0.850779 40.1509 1.95453C40.1595 2.36034 40.1534 2.76737 40.1534 3.1744C40.1546 3.9029 40.1546 3.89068 40.9051 3.90534C41.9269 3.92612 42.9499 3.84912 43.9718 3.99824C47.1363 4.46272 49.9475 7.26671 50.3961 10.4398C50.4364 10.7283 50.4878 11.0204 50.489 11.3101C50.4963 15.1641 50.4963 19.018 50.4963 22.8732C50.4963 23.6604 50.137 24.2508 49.4525 24.6199C48.7656 24.9915 48.0664 24.9548 47.4174 24.5295C46.8014 24.1249 46.5227 23.5333 46.5251 22.7889C46.5325 19.2442 46.53 15.6982 46.5264 12.1535C46.5251 10.8078 46.1377 9.62944 45.0498 8.74571C44.292 8.13089 43.4046 7.91942 42.4635 7.88031C41.8462 7.85464 41.2265 7.89253 40.6105 7.86809C40.2291 7.85342 40.1362 8.01965 40.1497 8.36312C40.1693 8.86672 40.1631 9.37153 40.1497 9.87513C40.1191 10.9593 39.2428 11.7832 38.1439 11.7758C37.0769 11.7685 36.2164 10.9398 36.187 9.87513C36.1724 9.35564 36.1724 8.83372 36.1858 8.31423C36.1932 8.01476 36.1088 7.86931 35.7751 7.87053C33.1081 7.87909 30.4411 7.87909 27.7741 7.87053C27.4392 7.86931 27.3585 8.01843 27.3658 8.31668C27.3793 8.82027 27.3768 9.32509 27.3658 9.82868C27.3426 10.9483 26.476 11.7844 25.3564 11.7758C24.2685 11.7673 23.4227 10.9275 23.4007 9.82379C23.3909 9.3202 23.3873 8.81538 23.4007 8.31179C23.4093 8.00988 23.3188 7.86931 22.9876 7.87053C20.3536 7.87909 17.7183 7.87787 15.0843 7.87175C14.7946 7.87053 14.6712 7.97321 14.6785 8.27023C14.6907 8.78971 14.6883 9.31164 14.6785 9.83112C14.6553 10.9312 13.8046 11.7697 12.7155 11.7758C11.5971 11.7819 10.7354 10.9447 10.7122 9.82257C10.7024 9.31897 10.6987 8.81416 10.7122 8.31056C10.7207 8.00621 10.6254 7.8632 10.2966 7.87175C9.42023 7.89376 8.54386 7.85097 7.66748 7.96221C6.16896 8.15166 4.70833 9.58911 4.52621 11.0913C4.46142 11.6243 4.42965 12.1572 4.42965 12.695C4.43453 22.3708 4.43331 32.0467 4.43331 41.7238C4.43331 43.0842 4.79755 44.2857 5.90128 45.1841C6.72998 45.8588 7.70048 46.0593 8.7272 46.0605C13.5406 46.0679 18.3539 46.0605 23.1673 46.0666C24.4641 46.0679 25.3503 47.0457 25.2048 48.3145C25.1083 49.164 24.5509 49.6602 23.8187 50.0013C18.2891 50.0013 12.7583 50.0013 7.22868 50.0013C5.64826 49.7214 4.22919 49.1029 3.03257 48.0138C1.62939 46.7304 0.825128 45.1267 0.5 43.2663C0.5 32.4012 0.5 21.5348 0.5 10.6696Z" fill="#EC971F"/>
<path d="M37.2912 50.0004C35.8771 49.7583 34.4947 49.4112 33.2223 48.7194C29.6569 46.7796 27.4702 43.8179 26.9348 39.7928C26.1025 33.5394 30.0443 27.9914 36.19 26.5918C42.2158 25.2191 48.5876 29.1208 50.102 35.1113C51.6751 41.3329 48.4006 47.3846 42.3429 49.4589C41.5876 49.718 40.8004 49.8341 40.023 50.0004C39.1137 50.0004 38.2018 50.0004 37.2912 50.0004ZM38.6712 46.0535C43.1497 45.9447 46.5207 42.4904 46.4987 38.1659C46.4755 33.7485 43.025 30.3565 38.6675 30.3504C34.2832 30.3431 30.8144 33.7741 30.8168 38.194C30.8192 42.6249 34.3003 45.9716 38.6712 46.0535Z" fill="#EC971F"/>
<path d="M12.67 22.5109C11.5663 22.5011 10.7107 21.6247 10.7168 20.5087C10.7229 19.3817 11.6103 18.5261 12.7556 18.5432C13.8544 18.5603 14.6978 19.4465 14.6844 20.5686C14.6709 21.6711 13.7897 22.5206 12.67 22.5109Z" fill="#EC971F"/>
<path d="M23.1735 20.5403C23.1698 21.6477 22.2995 22.5106 21.1885 22.5106C20.0579 22.5106 19.1949 21.6294 19.2072 20.4889C19.2194 19.3876 20.0982 18.5357 21.2166 18.543C22.3203 18.5503 23.1771 19.4243 23.1735 20.5403Z" fill="#EC971F"/>
<path d="M31.6629 20.495C31.6726 21.6147 30.8231 22.4972 29.7231 22.5106C28.5815 22.5241 27.6978 21.6636 27.6953 20.5342C27.6929 19.4206 28.5534 18.5491 29.6595 18.543C30.7755 18.5369 31.6531 19.3925 31.6629 20.495Z" fill="#EC971F"/>
<path d="M40.1541 20.5563C40.1455 21.66 39.2692 22.5156 38.1532 22.5107C37.0263 22.5058 36.1695 21.6172 36.1878 20.4731C36.2049 19.3743 37.0898 18.5309 38.2131 18.5431C39.3132 18.5553 40.1627 19.4366 40.1541 20.5563Z" fill="#EC971F"/>
<path d="M12.6632 31.0019C11.5607 30.9909 10.7076 30.1121 10.7149 28.9949C10.7222 27.8691 11.612 27.0159 12.7586 27.0355C13.8562 27.0538 14.6971 27.9424 14.6824 29.067C14.6678 30.1658 13.784 31.0129 12.6632 31.0019Z" fill="#EC971F"/>
<path d="M21.1559 31.0011C20.0534 30.9913 19.199 30.1137 19.2051 28.9965C19.2112 27.8708 20.0998 27.0152 21.2463 27.0335C22.3439 27.0506 23.1861 27.938 23.1726 29.0625C23.158 30.1626 22.2755 31.0109 21.1559 31.0011Z" fill="#EC971F"/>
<path d="M14.6826 37.5362C14.6741 38.64 13.7989 39.4968 12.683 39.4919C11.556 39.487 10.698 38.5996 10.7151 37.4568C10.731 36.3579 11.6159 35.5133 12.738 35.5255C13.8405 35.5365 14.6912 36.4178 14.6826 37.5362Z" fill="#EC971F"/>
<path d="M21.227 35.5235C22.3282 35.5358 23.1802 36.4146 23.1716 37.533C23.1631 38.6588 22.272 39.5107 21.1255 39.49C20.0291 39.4704 19.1894 38.5806 19.2053 37.456C19.2212 36.3572 20.1049 35.5125 21.227 35.5235Z" fill="#EC971F"/>
<path d="M36.6742 36.1771C36.6742 35.4951 36.6632 34.813 36.6766 34.131C36.6986 33.0419 37.5652 32.2083 38.6555 32.207C39.747 32.2058 40.6136 33.037 40.6405 34.1248C40.6539 34.6932 40.6515 35.2616 40.6429 35.83C40.6393 36.0989 40.7456 36.2113 41.0169 36.2089C41.325 36.2052 41.6415 36.1906 41.9385 36.2517C42.9298 36.4595 43.5617 37.3823 43.4664 38.436C43.3808 39.3845 42.5436 40.157 41.5511 40.1716C40.561 40.1863 39.5698 40.1887 38.5797 40.1704C37.5346 40.1521 36.7035 39.316 36.679 38.2709C36.6619 37.5742 36.6742 36.8751 36.6742 36.1771Z" fill="#EC971F"/>
</g>
<defs>
<clipPath id="clip0_163_61840">
<rect width="50" height="50" fill="white" transform="translate(0.5)"/>
</clipPath>
</defs>
</svg>
