<svg width="18" height="18" viewBox="0 0 18 18" fill="none" xmlns="http://www.w3.org/2000/svg">
<path d="M0.1423 9.51484V16.9053C0.1423 17.4313 0.568695 17.8577 1.09468 17.8577H4.9042C5.43019 17.8577 5.85659 17.4313 5.85659 16.9053V11.6672C5.85659 11.4042 6.06978 11.191 6.33278 11.191H11.0947C11.3577 11.191 11.5709 11.4042 11.5709 11.6672V16.9053C11.5709 17.4313 11.9973 17.8577 12.5233 17.8577H16.3328C16.8588 17.8577 17.2852 17.4313 17.2852 16.9053V9.51484C17.2845 8.75734 16.983 8.0311 16.4471 7.4958L9.9423 0.991034C9.76491 0.815087 9.52548 0.715896 9.27563 0.714844H8.15182C7.90198 0.715896 7.66255 0.815087 7.48516 0.991034L0.980394 7.4958C0.444424 8.0311 0.142967 8.75734 0.1423 9.51484Z" fill="#000094"/>
</svg>
