<svg width="14" height="11" viewBox="0 0 14 11" fill="none" xmlns="http://www.w3.org/2000/svg">
<path d="M12.999 0.334241L0.998967 0.33424C0.877473 0.33462 0.758383 0.36813 0.654516 0.431158C0.55065 0.494187 0.465939 0.584349 0.409503 0.691941C0.353067 0.799533 0.327042 0.92048 0.334231 1.04176C0.34142 1.16304 0.38155 1.28007 0.4503 1.38024L6.4503 10.0469C6.69897 10.4062 7.29763 10.4062 7.54697 10.0469L13.547 1.38024C13.6164 1.28028 13.6571 1.16319 13.6647 1.04171C13.6723 0.920226 13.6464 0.798988 13.59 0.691169C13.5335 0.583349 13.4485 0.493072 13.3443 0.430144C13.2401 0.367218 13.1207 0.334049 12.999 0.334241Z" fill="#000094"/>
</svg>
