<svg width="24" height="24" viewBox="0 0 24 24" fill="none" xmlns="http://www.w3.org/2000/svg">
<circle cx="12" cy="12" r="11.6" stroke="#000094" stroke-width="0.8"/>
<path d="M8.4076 7.66346C10.3912 5.67989 13.6072 5.67989 15.5908 7.66346C17.5743 9.64703 17.5743 12.8631 15.5908 14.8466L14.8984 15.5314C14.388 16.0323 13.7259 16.6763 12.9116 17.4635C12.4028 17.9555 11.5956 17.9554 11.0869 17.4634L9.05036 15.4824C8.79442 15.2311 8.58017 15.0192 8.4076 14.8466C6.42403 12.8631 6.42403 9.64703 8.4076 7.66346ZM14.972 8.28218C13.3302 6.64031 10.6682 6.64031 9.02632 8.28218C7.38445 9.92404 7.38445 12.586 9.02632 14.2279L9.89378 15.0839C10.3715 15.5514 10.972 16.135 11.6952 16.8344C11.8647 16.9984 12.1338 16.9984 12.3034 16.8345L14.2838 14.9086C14.5573 14.6401 14.7868 14.4132 14.972 14.2279C16.6139 12.586 16.6139 9.92404 14.972 8.28218ZM11.9992 9.66467C12.9662 9.66467 13.7501 10.4486 13.7501 11.4156C13.7501 12.3826 12.9662 13.1665 11.9992 13.1665C11.0322 13.1665 10.2483 12.3826 10.2483 11.4156C10.2483 10.4486 11.0322 9.66467 11.9992 9.66467ZM11.9992 10.5397C11.5154 10.5397 11.1233 10.9318 11.1233 11.4156C11.1233 11.8993 11.5154 12.2915 11.9992 12.2915C12.4829 12.2915 12.8751 11.8993 12.8751 11.4156C12.8751 10.9318 12.4829 10.5397 11.9992 10.5397Z" fill="#000094"/>
</svg>
