<svg width="24" height="24" viewBox="0 0 24 24" fill="none" xmlns="http://www.w3.org/2000/svg">
<circle cx="12" cy="12" r="11.6" stroke="#000094" stroke-width="0.8"/>
<path d="M17.6014 14.7034V16.4534C17.6021 16.6158 17.5688 16.7767 17.5037 16.9255C17.4386 17.0744 17.3432 17.208 17.2234 17.3178C17.1037 17.4276 16.9624 17.5113 16.8085 17.5633C16.6546 17.6153 16.4915 17.6347 16.3297 17.6201C14.5347 17.425 12.8105 16.8116 11.2956 15.8292C9.88613 14.9336 8.69118 13.7387 7.79557 12.3292C6.80972 10.8074 6.19621 9.0748 6.00473 7.27172C5.99016 7.11041 6.00933 6.94783 6.06103 6.79434C6.11272 6.64084 6.19582 6.49979 6.30501 6.38017C6.41421 6.26055 6.54712 6.16497 6.69528 6.09953C6.84344 6.03409 7.0036 6.00021 7.16557 6.00006H8.91557C9.19866 5.99727 9.47311 6.09752 9.68776 6.28212C9.90241 6.46672 10.0426 6.72307 10.0822 7.00339C10.1561 7.56343 10.2931 8.11331 10.4906 8.64256C10.5691 8.85135 10.586 9.07826 10.5395 9.2964C10.493 9.51455 10.3849 9.71479 10.2281 9.87339L9.48723 10.6142C10.3176 12.0746 11.5268 13.2838 12.9872 14.1142L13.7281 13.3734C13.8867 13.2166 14.0869 13.1085 14.3051 13.0619C14.5232 13.0154 14.7501 13.0324 14.9589 13.1109C15.4881 13.3084 16.038 13.4454 16.5981 13.5192C16.8814 13.5592 17.1402 13.7019 17.3252 13.9203C17.5102 14.1386 17.6085 14.4173 17.6014 14.7034Z" stroke="#000094" stroke-width="0.8" stroke-linecap="round" stroke-linejoin="round"/>
</svg>
