<svg width="24" height="24" viewBox="0 0 24 24" fill="none" xmlns="http://www.w3.org/2000/svg">
<circle cx="12" cy="12" r="11.6" stroke="#000094" stroke-width="0.8"/>
<path d="M12.0003 6.16406C15.2224 6.16406 17.8345 8.77614 17.8345 11.9983C17.8345 15.2205 15.2224 17.8325 12.0003 17.8325C8.77809 17.8325 6.16602 15.2205 6.16602 11.9983C6.16602 8.77614 8.77809 6.16406 12.0003 6.16406ZM13.7146 14.6231H10.2859C10.6662 16.0314 11.3274 16.9575 12.0003 16.9575C12.6731 16.9575 13.3342 16.0314 13.7146 14.6231ZM9.3801 14.6235L7.79198 14.6234C8.35101 15.5177 9.18719 16.2209 10.1802 16.6129C9.87558 16.1347 9.62417 15.536 9.43926 14.8539L9.3801 14.6235ZM16.2085 14.6234L14.6204 14.6235C14.4315 15.4015 14.1588 16.0816 13.8196 16.6129C14.7512 16.2454 15.5444 15.6044 16.1005 14.7888L16.2085 14.6234ZM9.13808 10.8313H7.17948L7.1767 10.8413C7.08799 11.2125 7.04102 11.5999 7.04102 11.9983C7.04102 12.6144 7.15335 13.2042 7.35868 13.7485L9.20969 13.7482C9.12668 13.1946 9.08268 12.6065 9.08268 11.9983C9.08268 11.5993 9.10162 11.2089 9.13808 10.8313ZM13.9818 10.8313H10.0187C9.97903 11.2048 9.95768 11.5955 9.95768 11.9983C9.95768 12.6163 10.0079 13.2057 10.0975 13.7484H13.903C13.9926 13.2057 14.0428 12.6163 14.0428 11.9983C14.0428 11.5955 14.0215 11.2048 13.9818 10.8313ZM16.8213 10.8308L14.8624 10.8313C14.8989 11.2089 14.9178 11.5993 14.9178 11.9983C14.9178 12.6065 14.8738 13.1946 14.7908 13.7482L16.6418 13.7485C16.8471 13.2042 16.9595 12.6144 16.9595 11.9983C16.9595 11.5962 16.9116 11.2052 16.8213 10.8308ZM10.1809 7.38364L10.1675 7.38872C8.97324 7.86397 8.00723 8.7899 7.4795 9.95649L9.25757 9.9567C9.44036 8.93424 9.75935 8.04412 10.1809 7.38364ZM12.0003 7.03906L11.9328 7.04215C11.1946 7.10968 10.4815 8.27749 10.1503 9.95646H13.8502C13.5199 8.2822 12.8099 7.11623 12.0739 7.04274L12.0003 7.03906ZM13.8203 7.38367L13.8826 7.48523C14.2729 8.13417 14.5694 8.98576 14.7429 9.9567L16.521 9.95649C16.0166 8.8415 15.1119 7.94636 13.9901 7.45441L13.8203 7.38367Z" fill="#000094"/>
</svg>
