<svg width="15" height="14" viewBox="0 0 15 14" fill="none" xmlns="http://www.w3.org/2000/svg">
<path d="M13.3338 10.2034V11.9534C13.3345 12.1158 13.3012 12.2767 13.2361 12.4255C13.171 12.5744 13.0756 12.708 12.9559 12.8178C12.8362 12.9276 12.6948 13.0113 12.5409 13.0633C12.387 13.1153 12.224 13.1347 12.0622 13.1201C10.2671 12.925 8.54291 12.3116 7.02799 11.3292C5.61856 10.4336 4.4236 9.23866 3.52799 7.82922C2.54214 6.30743 1.92863 4.5748 1.73716 2.77172C1.72258 2.61041 1.74175 2.44783 1.79345 2.29434C1.84515 2.14084 1.92824 1.99979 2.03744 1.88017C2.14663 1.76055 2.27954 1.66497 2.4277 1.59953C2.57586 1.53409 2.73602 1.50021 2.89799 1.50006H4.64799C4.93109 1.49727 5.20554 1.59752 5.42018 1.78212C5.63483 1.96672 5.77503 2.22307 5.81466 2.50339C5.88852 3.06343 6.0255 3.61331 6.22299 4.14256C6.30147 4.35135 6.31846 4.57826 6.27194 4.7964C6.22541 5.01455 6.11733 5.21479 5.96049 5.37339L5.21966 6.11422C6.05006 7.57462 7.25925 8.78382 8.71966 9.61422L9.46049 8.87339C9.61909 8.71655 9.81933 8.60847 10.0375 8.56194C10.2556 8.51542 10.4825 8.53241 10.6913 8.61089C11.2206 8.80838 11.7705 8.94536 12.3305 9.01922C12.6139 9.0592 12.8726 9.20193 13.0576 9.42026C13.2426 9.6386 13.3409 9.91731 13.3338 10.2034Z" stroke="white" stroke-width="1.5" stroke-linecap="round" stroke-linejoin="round"/>
</svg>
