<svg width="88" height="81" viewBox="0 0 88 81" fill="none" xmlns="http://www.w3.org/2000/svg">
<path d="M3.375 78H84.625M9.625 3V78M53.375 3V78M78.375 21.75V78M22.125 18.625H25.25M22.125 31.125H25.25M22.125 43.625H25.25M37.75 18.625H40.875M37.75 31.125H40.875M37.75 43.625H40.875M22.125 78V63.9375C22.125 61.35 24.225 59.25 26.8125 59.25H36.1875C38.775 59.25 40.875 61.35 40.875 63.9375V78M6.5 3H56.5M53.375 21.75H81.5M65.875 37.375H65.9083V37.4083H65.875V37.375ZM65.875 49.875H65.9083V49.9083H65.875V49.875ZM65.875 62.375H65.9083V62.4083H65.875V62.375Z" stroke="#EC971F" stroke-width="5" stroke-linecap="round" stroke-linejoin="round"/>
</svg>
