<svg width="88" height="80" viewBox="0 0 88 80" fill="none" xmlns="http://www.w3.org/2000/svg">
<path d="M3.375 77.5H84.625M9.625 2.5V77.5M53.375 2.5V77.5M78.375 21.25V77.5M22.125 18.125H25.25M22.125 30.625H25.25M22.125 43.125H25.25M37.75 18.125H40.875M37.75 30.625H40.875M37.75 43.125H40.875M22.125 77.5V63.4375C22.125 60.85 24.225 58.75 26.8125 58.75H36.1875C38.775 58.75 40.875 60.85 40.875 63.4375V77.5M6.5 2.5H56.5M53.375 21.25H81.5M65.875 36.875H65.9083V36.9083H65.875V36.875ZM65.875 49.375H65.9083V49.4083H65.875V49.375ZM65.875 61.875H65.9083V61.9083H65.875V61.875Z" stroke="white" stroke-width="5" stroke-linecap="round" stroke-linejoin="round"/>
</svg>
