<svg width="100" height="100" viewBox="0 0 100 100" fill="none" xmlns="http://www.w3.org/2000/svg">
<g clip-path="url(#clip0_640_21234)">
<path d="M52.344 99.9997H2.375V53.8174H52.344V99.9997ZM6.87773 95.5084H47.8413V58.3087H6.87773V95.5084Z" fill="white"/>
<path d="M53.56 95.5088H0V100H53.56V95.5088Z" fill="white"/>
<path d="M38.6225 100H16.1426V72.3447C16.1426 70.8289 17.3808 69.5938 18.9005 69.5938H35.8645C37.3842 69.5938 38.6225 70.8289 38.6225 72.3447V100ZM20.6453 95.5089H34.1197V74.0739H20.6453V95.5089Z" fill="white"/>
<path d="M24.5966 86.8965C23.1107 86.8965 21.9062 85.695 21.9062 84.2129C21.9062 82.7307 23.1107 81.5293 24.5966 81.5293C26.0825 81.5293 27.287 82.7307 27.287 84.2129C27.287 85.695 26.0825 86.8965 24.5966 86.8965ZM24.5966 82.4051C23.5948 82.4051 22.7843 83.2136 22.7843 84.2129C22.7843 85.2122 23.5948 86.0207 24.5966 86.0207C25.5985 86.0207 26.409 85.2122 26.409 84.2129C26.409 83.2136 25.5872 82.4051 24.5966 82.4051Z" fill="white"/>
<path d="M38.4643 44.7902H16.3672V23.1643C16.3672 21.6485 17.6054 20.4246 19.1139 20.4246H35.7064C37.2261 20.4246 38.4531 21.6597 38.4531 23.1643V44.7902H38.4643ZM20.8699 40.2988H33.9616V24.9159H20.8699V40.2988Z" fill="white"/>
<path d="M40.1416 40.2988H14.7012V44.7902H40.1416V40.2988Z" fill="white"/>
<path d="M29.6727 22.6699H25.1699V42.5442H29.6727V22.6699Z" fill="white"/>
<path d="M36.2136 30.3613H18.6191V34.8527H36.2136V30.3613Z" fill="white"/>
<path d="M96.6852 100H47.8418V62.8008H52.3445V95.5091H92.1824V62.8008H96.6852V100Z" fill="white"/>
<path d="M79.3719 60.5549H75.6797V65.0463H79.3719V60.5549Z" fill="white"/>
<path d="M97.4169 65.0455H83.9875V60.5541H94.2874L89.7847 51.5714H52.3445V60.5541H71.1547V65.0455H47.8418V47.0801H92.5764L99.7245 61.3401C100.13 62.1486 100.085 63.0805 99.6119 63.8328C99.1279 64.5964 98.3174 65.0455 97.4169 65.0455Z" fill="white"/>
<path d="M99.0593 95.5088H46.625V100H99.0593V95.5088Z" fill="white"/>
<path d="M52.3447 56.0749L47.842 56.0636L47.8758 18.6282L43.8008 15.9895L46.2435 12.2168L52.3785 16.1916L52.3447 56.0749Z" fill="white"/>
<path d="M6.86601 56.0633H2.36328V16.2138L27.3759 0L39.1506 7.62407L36.7079 11.3968L27.3759 5.35594L6.86601 18.6503V56.0633Z" fill="white"/>
<path d="M88.6247 100H56.0137V72.3447C56.0137 70.8289 57.2519 69.5938 58.7716 69.5938H85.8668C87.3864 69.5938 88.6247 70.8289 88.6247 72.3447V100ZM60.5164 95.5089H84.122V74.0739H60.5164V95.5089Z" fill="white"/>
<path d="M80.2049 78.2275H64.4453V82.7189H80.2049V78.2275Z" fill="white"/>
<path d="M80.2049 86.8623H64.4453V91.3537H80.2049V86.8623Z" fill="white"/>
<path d="M47.2781 18.2347L35.6836 10.7341V1.56055H47.2781V18.2347ZM40.1863 8.28635L42.7754 9.95938V6.04067H40.1863V8.28635Z" fill="white"/>
</g>
<defs>
<clipPath id="clip0_640_21234">
<rect width="100" height="100" fill="white"/>
</clipPath>
</defs>
</svg>
