<svg width="74" height="79" viewBox="0 0 74 79" fill="none" xmlns="http://www.w3.org/2000/svg">
<path d="M37.0218 39.5415C46.9825 39.5415 55.1021 30.6701 55.1021 19.8719C55.1021 9.15762 47.0664 0.745117 37.0218 0.745117C27.1021 0.745117 18.9414 9.32547 18.9414 19.9558C18.9825 30.7112 27.1021 39.5415 37.0218 39.5415ZM37.0218 33.2219C30.911 33.2219 25.6789 27.3648 25.6789 19.954C25.6789 12.6737 30.8271 7.06476 37.0218 7.06476C43.2985 7.06476 48.3628 12.5898 48.3628 19.8719C48.3628 27.279 43.2146 33.2219 37.0218 33.2219ZM10.7378 78.2576H63.3057C70.2521 78.2576 73.5593 76.163 73.5593 71.5612C73.5593 60.5933 59.7468 44.7326 37.0218 44.7326C14.295 44.7326 0.441406 60.5951 0.441406 71.5594C0.441406 76.163 3.74855 78.2576 10.7378 78.2576ZM8.72891 71.9344C7.63962 71.9344 7.18069 71.6415 7.18069 70.763C7.18069 63.8987 17.811 51.0487 37.02 51.0487C56.2325 51.0487 66.82 63.8987 66.82 70.763C66.82 71.6415 66.4021 71.9344 65.3146 71.9344H8.72891Z" fill="#EC971F"/>
</svg>
